/* XPM */
static char *_526573845801[] = {
/* columns rows colors chars-per-pixel */
"128 128 50 1 ",
"  c black",
". c #070707",
"X c #00000E",
"o c #0B0B0B",
"O c #170F07",
"+ c #1F170B",
"@ c #000014",
"# c #131313",
"$ c #1B1B1B",
"% c #2F1B0B",
"& c #2B230F",
"* c #232B0F",
"= c #372313",
"- c #332B13",
"; c #3F2F17",
": c #3F2B1B",
"> c #000020",
", c #00002A",
"< c #00002C",
"1 c #000031",
"2 c #000038",
"3 c #00003F",
"4 c #2F2F2F",
"5 c #43331B",
"6 c #4B371B",
"7 c #533F1F",
"8 c #473323",
"9 c #4F3B23",
"0 c #4F3B2B",
"q c #533F2F",
"w c #5F4323",
"e c #574333",
"r c #5F4B37",
"t c #000048",
"y c #00004F",
"u c #000056",
"i c #000065",
"p c #000069",
"a c #00006E",
"s c #000077",
"d c #434343",
"f c #6F5743",
"g c #000084",
"h c #00008B",
"j c #00008F",
"k c #000095",
"l c #0000A0",
"z c #0000C6",
"x c #0000CB",
"c c #0000E9",
/* pixels */
"ooOO++++OOOO++oo++++++++++++++&&88:88:::88::88%::5558::::8;8888888:::&:::8888::::::::888888888:&oo++++++++$$%%OO++&&&&&&++++++++",
"ooOO++++OOOO++oo++++++++++++++&&:&&+&&$&::$&++++$&&&++$$::&$&&&$$$&&&+++&&$&&$+&&$&&++&::$$&:=&&oo++++++++$$%%OO++&&&&&&++++++++",
"OOoo++$$OO++oooo++++++++++++++$$:+O+O&+O&&&+o...O+&&&+OO+++++++++++++++++++++OO+++OO++++&+&&&&++++oo++++&&%%OOOO&&++++&&&&++++++",
"OOoo++$$OO++oooo++++++++++++++$$&+++++O+&+&+++&&+&&+++&+++++++OO+++++++++++++O++++OO+O+&&&++&&++++oo++++&&%%OOOO&&++++&&&&++++++",
"++++oo%%;;++oo++++++++++++++++++&&+++OO+++&&++&+++OO&O&++++OOOOO+&&&+++++++++++++&O++O+&&&+&&&++$$++oo&&&&OOOO&&++++OO++&&++&&&&",
"++++oo%%;;++oo++++++++++++++++++&&O+++O+&&&+&&+OO++OO++O+++++++++&++O&+OOOOOOOO++++++O+++&&++$++$$++oo&&&&OOOO&&++++OO++&&++&&&&",
"++%%&&oo++OO%%++++OOOOOOOO++++++&&+++&&O&+=::&+O+++OOOOOoOoooOooO+OOOO+OOOooOOOOO++OO&+&+++&&&++++$$&&ooOO++&&++OOOOOO++++++&&++",
"++%%&&oo++OO%%++++OOOOOOOO++++++&$O+&+O&++&&+&OoOo...  ........................oOO+++OO+++&++&++++$$&&ooOO++&&++OOOOOO++++++&&++",
"++%%&&OOoo&&&&++++++OOOO++OOOO++:&++++++++++++&+o..++&+++OOO++++++++++&$&+&&+OoooO+++++++++++$++++++&&++oo&&++++++OO++&&&&&&++++",
"++%%&&OOoo&&&&++++++OOOO++OOOO++-&++O+++&&+++&&+.O+qq88::=&&&&&=&=&:&:=:888q8;=+oO&++O++++&++$++++++&&++oo&&++++++OO++&&&&&&++++",
"$$&&OOOO&&oo++++++++++&&&&OOOO++-&++O+OO++O+&+&O.O+=:q::&%+O&&&&+++O+$&;;;8;8::&.++&++O++++&&&++&&$$OOOO&&..++++++++&&&&++++++&&",
"$$&&OOOO&&oo++++++++++&&&&OOOO++-:&+o...o++++&&O.++8:8:&&&+&&+&&OOO++&+&&&&::88&.O++O...o++&+$++&&$$OOOO&&..++++++++&&&&++++++&&",
"::OOOO%%++OO..++++++++++&&::++++:&+o.O&&OoO+++&+.+&::%:&++&+++++++++++&+$&&&-&=&.O+O.O&&OoO++&+&&&oooo++&&++oo++++++++&&&&OOOO++",
"::OOOO%%++OO..++++++++++&&::++++8&O.#:+O+.o+++++.++:&&:++O&++&++&++++O&O+&&&&&:+.OO.O:+++.O++&+&&&oooo++&&++oo++++++++&&&&OOOO++",
"OO++%%++++++++oo++++++&&&&&&++$$&&O.O++#O.++++&+.+&8&&:&+&+$+&&&++O+&+++++&&:&:O.Oo.O++OO.+++&+%OOoo++++++++++oo++++++++++++&&%%",
"OO++%%++++++++oo++++++&&&&&&++$$&$&.oooOOo$=+O+o.&&8&&&&&:88=:+OOO++&&-+$&&+&&:+.oOooOoO+o&:+&+%OOoo++++++++++oo++++++++++++&&%%",
"OO%%&&&&++&&$$++oo$$--&&&&&&::++-$+o..O+oo8:++&o.+&8&&:: %= = = = = %.o &&&&&&&O.oOO..++ooq:+&+OOO&&++++OO++++++..++++++++&&::++",
"OO%%&&&&++&&$$++oo$$--&&&&&&::++:&+&+OoO#8q%&&OO.++:&&:: ia<g3g3g3g3p>i.=+++&&:&.oO++OoO#8r&&&+OOO&&++++OO++++++..++++++++&&::++",
"%%$$&&&&++++++$$$$oo$$%%%%::OOOO:&+&$=88qr8++++o ++:&&::.alslslskskslsao&$&&&&8O.oO+&:88qr:&+&+O$$++OOOO++++OO++++oo&&%%%%&&OOOO",
"%%$$&&&&++++++$$$$oo$$%%%%::OOOO:&+++$=::&++++Oo +&:&&8q.pljzjzjxkxkzsp+&+++&&8O.oO++&:88&+++&+O$$++OOOO++++OO++++oo&&%%%%&&OOOO",
"$$++++++&&&&&&&&--$$..::88&&++::&&++++&+&&O+++O. +&8&&&:.gljzjczczzjzsg+&++&&&8O.o+++++++O+++$+&++++++++++++++++--++oo::::++++%%",
"$$++++++&&&&&&&&--$$..::88&&++::&&++++++&&&&&OOo &&8:++&$pskzzczczcjzsg+++++&&8+.oO+++++++OO+&+&++++++++++++++++--++oo::::++++%%",
"++++++++&&&&&&++++%%::OO&&&&::&&:&&&++++O+O++OOO.+&8:+++:q$.zzczczcjz#:&O++&&&:+.oo+++++++OO+$++++++++++++++&&&&++&&&&OO++++%%&&",
"++++++++&&&&&&++++%%::OO&&&&::&&-&+&OO++O+&:&O+O.+&-:&&+&:+.zzczczcjzo&+&O+&&&:+.oo++++++++OO&++++++++++++++&&&&++&&&&OO++++%%&&",
"++++++++++++&&&&OO++::&&OO55&&++:$+&++&O+&&++O+o.+4q:+&+$5% zzczczcjzo&++++&&&:O.OO++&&+++OO+&+&&&&&++++++++++&&&&&&::&&oo==%%++",
"++++++++++++&&&&OO++::&&OO55&&++:&+O++++&&&++++o.+&q:+&&+ahszzczczcjz-w&$++&&&:O.OoO++++&OO++&+&&&&&++++++++++&&&&&&::&&oo==%%++",
"++&&&&++++++++++++::++++55OO&&++:$++++&&++++&++o.++:&++& uljzzczczcjzsg %O++&&:+.ooOO++++++++++&&&++++++++++++&&&&%%++&&;;oo&&&&",
"++&&&&++++++++++++::++++55OO&&++:&++O++O+++++&+o +&8&&&= uljzzczczcjzsg =++&&&:O.oOO+OOO+++O+&+&&&++++++++++++&&&&%%++&&;;oo&&&&",
"&&++&&++OOOO++++::++++&&&&&&oo++:&O++OO+O+++O+++ +&-+O+- uljzzczczcjzsg %+&&&&:O oO++OOOOOOO+&+&&&&&++++++++&&$$&&OOOO::::$$oo++",
"&&++&&++OOOO++++::++++&&&&&&oo++:&+OO+O&&+++++Oo +&:&O+$o;q6zzczczcjziu+++&:&&:+.ooOOO+OO+OO+++&&&&&++++++++&&$$&&OOOO::::$$oo++",
"&&++++++++++$$%%OOOO&&++++++$$oo=&OO++O+++O+++Oo +&:+++&&&&ozzczczcjz#:;+O+:&&:+.oOO+OOOOO+++++o&&++++++++++$$::OO++%%$$++++&&oo",
"&&++++++++++$$%%OOOO&&++++++$$oo:&++.+O++O&+++Oo.+&:&+++$&%ozzczczcjz.&%+++:&&8O.oOOO++O+OO+O++o&&++++++++++$$::OO++%%$$++++&&oo",
"oo++$$OOOO++&&OOOO%%$$++++++$$$$:+O.oO&&+O++OO+o.++:&+++$:&ozzczczcjzo&%++&&:&:+.oOOO+++O+O++++&oo&&&&++++++&&OOOO%%++++++++$$++",
"oo++$$OOOO++&&OOOO%%$$++++++$$$$&+OO.OO&+++OO++o.++:+++&+9r6zzczczcjzia&++&:&&&+.OO++O+++OOO+&+&oo&&&&++++++&&OOOO%%++++++++$$++",
"++..++&&&&++OOOO$$&&++++++++++$$&+O++O++&O+++O+O.++:+++%.uljzzczczcjzsiO-&&&=&&&.oO++++O+++++&++&&oo&&$$$$%%OOOO%%++++++++++++++",
"++..++&&&&++OOOO$$&&++++++++++$$:++O++O++&&+++Oo.O+:&++8 uljzzczczcjzsiO&&&&&&&O.OO++++++O+++&++&&oo&&$$$$%%OOOO%%++++++++++++++",
"++++oo&&&&OOoo++&&&&OO++++&&&&&&&$+&OO&&++&++++O.+&8&++:.uljzzczczcjzsiO=+&&&&&O.OO++O+O++++++++++++oo&&&&++OO%%&&&&&&++++++++++",
"++++oo&&&&OOoo++&&&&OO++++&&&&&&:$++O&++++++OOOo.+&:&$+8otsszzczczcjz*9+&+&&&&&O.OO++++O+++++&++++++oo&&&&++OO%%&&&&&&++++++++++",
"++&&&&..ooOO%%++++++++++&&++&&&&&++++&O++++++OOo +&:&+++&:8ozzczczcjz#q&&O&+&&=+.OO+++&+&&+++&++++$$--oo++++&&$$&&&&&&++&&++OO++",
"++&&&&..ooOO%%++++++++++&&++&&&&&++&++&&OOO+++O. ++:+++++&$ozzczczcjz#$O+O+&&&:O.OO++&+++&+++$++++$$--oo++++&&$$&&&&&&++&&++OO++",
"OO%%&&OOoo&&&&++++++++++++++++&&&++++++O++++&O...++:&++++;&+zzczczcjzo%++O+&&&&o.O+++++++&&&&$++++$$&&++oo&&%%$$++++&&&&++OO++++",
"OO%%&&OOoo&&&&++++++++++++++++&&&++O+++&++++.oo. ++:+&+$+tu1zzczczcjz*w+&O+&&&%O.O+&+++++++++$++++$$&&++oo&&%%$$++++&&&&++OO++++",
"$$%%OOOO&&oo&&++&&++++OO&&++++++&+OO++O&++++&&+O +&:&+O&.uljzzczczcjziu.-+&&&&:+.O+&++++++++&&++++&&++OO--OO&&++&&++++++&&++OO&&",
"$$%%OOOO&&oo&&++&&++++OO&&++++++&&+Oo...oO+++&&+.+&:&++& iljzzczczcjzip.&&&&&&:+.O++O.o..O++++++++&&++OO--OO&&++&&++++++&&++OO&&",
"&&OOOO&&++++oo++&&++++++&&&&++&&&++o.O&&O.O++&&+.+&:&++- pljzzczczcjzip.-&&&&&%+.O+O.O&&#.O++&++&&++++&&%%$$oo++&&++++&&++++++++",
"&&OOOO&&++++oo++&&++++++&&&&++&&&+O.#8+O+.o+O&+O.&&-&&&&Ousszzczczcjztu+:+&&:&:+.OO.#:&++.o++&++&&++++&&%%$$oo++&&++++&&++++++++",
"OOOO&&$$++$$OOoo++++++++++++++&&&+o.OO+oo.OO&&+O +&8&&&&-98ozzczczcjz#r6&&&&&&=+.oO.O++Oo.+++:+&++++&&$$++$$++oo++$$++++++++++&&",
"OOOO&&$$++$$OOoo++++++++++++++&&&&+.ooooOo&&OO+O +&8:&+&&5&+zzczczcjz#5-&&&&:&=O.oo.oooO+o+&+$+&++++&&$$++$$++oo++$$++++++++++&&",
"OO&&++++++&&++++..++++++++++++OO:$+o..O+oo8:OOOO.+&:&++&+8=#zzczczcjz.;-+++&&&&O oOo. O+oo8:&:+OOO%%++++++OO++$$oo$$++&&++++&&oo",
"OO&&++++++&&++++..++++++++++++OO&$++OOo##qq&O+Oo.+&:&++&+yhszzczczcjzia-+&&&:&+o.oo++oo##qq&+&+OOO%%++++++OO++$$oo$$++&&++++&&oo",
"++++OO++OO++$$++++..++++++%%OOOO:&++$:88rr:&+OOo.+&:&++%.yljzzczczcjzsg.&&&::&&O OO+$&88qq:++&+O$$++++++++++&&++++oo&&&&::--ooOO",
"++++OO++OO++$$++++..++++++%%OOOO:$+++&:88&+&++Oo +&-&++&.yljzzczczcjzsg.;&&&:&+O.OOO++&8:&++&++O$$++++++++++&&++++oo&&&&::--ooOO",
"OOOOOOOO&&++++++&&&&OO--&&OOOO$$:$+++&++++&+++Oo.++-&++&.yljzzczczcjzsg.:&&&:&OO.+oo+&+++++++&+$++++++++++OO++++$$&&oo&&88++OO$$",
"OOOOOOOO&&++++++&&&&OO--&&OOOO$$=$O&&OO++&&++++o ++:&+O+o<31zzczczcjz;w+:&&:&&&O.+oo+&+++&+++&+$++++++++++OO++++$$&&oo&&88++OO$$",
"oo++++++++++++++&&&&%%oo&&OO&&++=:O+O&&O&+&&&+Oo.+&:&+++%8qOzzczczcjzo6=$&::&&+O.+oO&&+++O++&&++++&&OO++++++++++++&&&&oo++++&&OO",
"oo++++++++++++++&&&&%%oo&&OO&&++&+++&+OOOO&&+++O +&:&&O+$:-#zzczczcjzo5-&&&&:&&O.ooOOO+++OO&+&++++&&OO++++++++++++&&&&oo++++&&OO",
"ooOO++++++OO++++&&&&;;&&..&&++++-&OO++++O+&++++o.++8&+++$:&#zzczczcjzo6-&&+:&&&o.O.OO++++O+++&++++++++++&&&&++++++&&::++oo%%++OO",
"ooOO++++++OO++++&&&&;;&&..&&++++-&+O&+++O++++++O +&:&+O+$9f6zzczczcjzia&::&:8&&O O+O+O+O+++&+&++++++++++&&&&++++++&&::++oo%%++OO",
"&&OOOOOOOO++OOOO&&&&&&++55OO++++-&++O+&OO+++++Oo.++8&++&.uljzzczczcjzsiO%+&&&&&O O+O+O++OO+O&&+$++++++++++++++++++&&OO++::OO&&&&",
"&&OOOOOOOO++OOOO&&&&&&++55OO++++-&++O++++O+++++O.+&:&+$&.uljzzczczcjzsiO8&&:-:8+.oOO++OOO&&+&&+$++++++++++++++++++&&OO++::OO&&&&",
"&&&&OO++OOOOoo++++++oo%%&&--oo&&:&++O++&O+O+++OO.+&:&+O&.ylkzzczczcjzsiO&++++&:&.O+ooOOOO&&&+&++++++++++++++++++&&OOOO&&==&&OO&&",
"&&&&OO++OOOOoo++++++oo%%&&--oo&&-&++O++OO&++++OO.++:&++&Oysszzczczcjz*5+%O&++&=& OO+++O++&$+&&++++++++++++++++++&&OOOO&&==&&OO&&",
"&&++++OOOOOO++++oooo++&&++++++oo-&++++OO+O+++O+o +&-$&++&<<Xzzczczcjzor;&O+&+&=+ oO+++++&++&&&+.++++++++++++++++OOoo$$%%&&&&::oo",
"&&++++OOOOOO++++oooo++&&++++++oo&+O+O&+++O&+:&+o.+&-&&++&&&#zzczczcjzo-&&+&&+&&O.o+O&&&&&&+++&+.++++++++++++++++OOoo$$%%&&&&::oo",
"oo++++++OO++$$oo++OOOOOO++++++++=+++O&OooO+&&&++ +&0&&&+&:&ozzczczcjzo8%+++&&&&O.oOO&&&&&&+++++&OO++$$++++++$$OO++++&&&&&&&&++++",
"oo++++++OO++$$oo++OOOOOO++++++++&&O&+&+O++&&&&+o.++-$&+&&wf6zzczczcjz#q:$+++&&:O.oO+O+&&&O+&+$+&OO++$$++++++$$OO++++&&&&&&&&++++",
"++oo$$&&++&&oooo++OO++&&++++++OO&&O+O&+++++++&+O.+&q-++O.yljzzczczcjztuO%+++&::O.OO+O++&&&+&+&++&&..&&$$&&&&OOOO++++++++++&&++++",
"++oo$$&&++&&oooo++OO++&&++++++OO&&+O+&O&+&&++++o.+&6&O$O.yljzzczczcjzipO&++&&&:+.OOO+++&&&+&+$++&&..&&$$&&&&OOOO++++++++++&&++++",
"$$$$oo&&&&OOOO++OO++++++++++++OO&&+++++&&+++++&o.+&-&O&-.iljzzczczcjzipO+++&&&:O oO+O++&&$&&&$+&&&&&oo%%::OOOO$$++++&&&&&&++&&++",
"$$$$oo&&&&OOOO++OO++++++++++++OO=$O++++&&&++++OO.+&:+O&%+tsszzczczcjzip+++&&&=:O .o+O+&&&&&&+&+&&&&&oo%%::OOOO$$++++&&&&&&++&&++",
"++%%&&oo++++%%++++++++++++++OOOO&$++++&&+&&+&&+O.+&8++&+589+zzczczcjz;6&++&&&:8+ ooooO+&&&&&&&++++&&&&OO++&&$$++++++++++&&++++++",
"++%%&&oo++++%%++++++++++++++OOOO&&++&+++&&++++OO.+&:&++O:7=Ozzczczcjzo&+OO+&&:5+ oOOOOO++&&&&&++++&&&&OO++&&$$++++++++++&&++++++",
"++&&::OOoo&&&&++++++++++++++OO++&&&+&++O+&+++++O.+&q&++++&&ozzczczcjz#:+O++&&:8+ oO+OO+&&&&&&&++++++&&OOoo&&&&++++++++&&&&++&&++",
"++&&::OOoo&&&&++++++++++++++OO++=&++++++&&+++&OO.++:&&+$+5r6zzczczcjziy+++++&&:+.++++O+&+&&&+&++++++&&OOoo&&&&++++++++&&&&++&&++",
"++%%&&&&;;OO++++++++++++++++++++&$&&&+OO+++++++O.+&8&:&O.uljzzczczcjzsu.+O++&&8+.O+++&++&&&&&$++++&&OO++&&OO$$&&++++&&&&&&&&++++",
"++%%&&&&;;OO++++++++++++++++++++=&&OO.o..O++++Oo +&8&:&+.yljzzczczcjzsu.&++&&::+.oO+O...o+&++$++++&&OO++&&OO$$&&++++&&&&&&&&++++",
"$$OO++::::++OO$$++++++++++++++++:&Oo.O&&O.OOOOOo.+&e8::&.yljzzczczcjzsu.&+++&&:&.oOO.O&&#oO++&++$$OOoo++&&&&..++++++++&&++++++++",
"$$OO++::::++OO$$++++++++++++++++&&+.o8+O+.O+&&&o.+&8:=&:otsszzczczcjz,2O&+&+&&:O.O+.#8+O+.O++&++$$OOoo++&&&&..++++++++&&++++++++",
"OOOO::$$++&&$$OO$$$$++++++&&++%%:&+.O++Oo.+++++o.+&-:+&O&5q+zzczczcjzO6;&++&&&:O.OO.O++oo.+&+++$OOoo++++OO++++..++++++&&&&++OO++",
"OOOO::$$++&&$$OO$$$$++++++&&++%%:&+.oooOOo&=++Oo ++:&+++O8:ozzczczcjz#:+++++&&:O.O+ooOoO+o&=+$+$OOoo++++OO++++..++++++&&&&++OO++",
"++++++++++++++++oo++$$++&&$$%%OO&&+O. ++oo8&++Oo ++:&++++&=ozzczczcjz#&+OO++&:q+.OO+..O+oo8:+&++OO&&OOOOOOOO++++..++$$++&&&&$$OO",
"++++++++++++++++oo++$$++&&$$%%OO&+O+O+o##8q+O+Oo.+&:+++$+8d+zzczczcjzww++O+&&&q+.oO+OOoO#8q&+&++OO&&OOOOOOOO++++..++$$++&&&&$$OO",
"$$&&++++++++++&&$$oo$$%%%%&&OOOO:&&+&=08rr=OO+Oo +&:&++%.gljzzczczcjzsi.+O&&&:q& O+&&&88rr:++&+O&&++++++OO++++++++oo&&$$$$%%++++",
"$$&&++++++++++&&$$oo$$%%%%&&OOOO:$++++&::&+OoOOo +&:++$8.iljzzczczcjzsi.&++&&&&& O+++&:8:&++&&+O&&++++++OO++++++++oo&&$$$$%%++++",
"++++&&++&&&&&&&&$$++oo%%&&OOOO&&:&++++++++++++Oo +&:+++8.pljzzczczcjzsi.+++&&:-+.Oo+&+O+++&&&&+:&&++++++++++++&&++&&oo%%::++++$$",
"++++&&++&&&&&&&&$$++oo%%&&OOOO&&-$++++++++++O++o.++:&OO:+iljzzczczcjzuaO&O+&&:-+.oO&+++O+O+++&+:&&++++++++++++&&++&&oo%%::++++$$",
"&&&&&&&&++&&++++++&&&&OO++OO&&++-$+++++O++OOO++O.+&-+OOO&88ozzczczcjx#q&+++&&:8+.o+&O+&++++++&+&++++++++++++++&&&&$$%%oo++++%%&&",
"&&&&&&&&++&&++++++&&&&OO++OO&&++:$++++++OO+O++OO ++:&OOO$&$ozzczczcjxo:&+++&&&:O.Oo+&&+&+O+++&+&++++++++++++++&&&&$$%%oo++++%%&&",
"++&&++++++++++++++&&&&OOoo&&%%&&=&+OO++OOOO+OO+. ++8&OOO$:=ozzczczcjxo:&++&&&&5+ O+&&&+++O&+&&++++++++++++++++&&&&$$&&++oo==%%++",
"++&&++++++++++++++&&&&OOoo&&%%&&&&OO++++O+OOOOOo O&8+++++qf6zzczczcjztu&$+&&:&-+.O+&++&&&=&+&&++++++++++++++++&&&&$$&&++oo==%%++",
"&&&&++++&&++++&&++%%OO++&&oo&&&&&++OO+&++O++++Oo O+:&++%.yljzzczczcjziu.-+&+&&:+.o++++&&&++&++++++++++++++++++&&&&--++&&==OO$$$$",
"&&&&++++&&++++&&++%%OO++&&oo&&&&&&&+++++++++++O..+&8&+O& yljzzczczcjzip.;&+&&&5+.o+O&&&&&&&+O&++++++++++++++++&&&&--++&&==OO$$$$",
"&&&&++++++++++++%%OOOO%%&&++oo&&=&+O&+++++++O+o..O+8++OO yljzzczczcjzip.-+++&&:+ o+O&&&&&&&++++&++++++++++++&&&&&&++OO%%%%&&oo&&",
"&&&&++++++++++++%%OOOO%%&&++oo&&&$O+++&++OOOoOoO.O+&++O+otsszzczczcjx*9+&++&&&-+.O++&&&+&&+++&+&++++++++++++&&&&&&++OO%%%%&&oo&&",
"&&$$++++&&++$$&&OOOO%%$$++&&&&oo&+++O&+++OOOoOoo.+&:+++O%::ozzczczcjx.6=$++&&&:+.O++&&&+&&+++&+o++++++++++++&&&&++++$$$$&&&&++oo",
"&&$$++++&&++$$&&OOOO%%$$++&&&&oo=+&+O+&OOOOOOOoo.++-&&++$&&Ozzczczcjx.5&++&&&&-+.o++++&&+++O+&+o++++++++++++&&&&++++$$$$&&&&++oo",
"oo&&++++++&&%%OO++$$++++++++&&&&:&+O++++++O.OOo. ++8&&+O$&&Ozzczczcjx#&&+O+&&::+.O+O+&&&++++&&++oo&&&&++++++++++&&&&&&&&&&++$$&&",
"oo&&++++++&&%%OO++$$++++++++&&&&:&+++$$+OOOOO++o.O&:&&+$+:4Ozzczczcjx;w&+++&&&8+.+OO&+&&++&&&&++oo&&&&++++++++++&&&&&&&&&&++$$&&",
"++OO++%%::::OOOO$$++++++++++&&++:&+++$++OO+OO+oO.+&:&++% pljzzczczcjzsp.:++&&:q+.OOO+&&&&&++&&+$++..++&&++++oo++&&++&&&&++++++++",
"++OO++%%::::OOOO$$++++++++++&&++&&OOo+&++O++OO+o.O&:&+O=.pljzzczczcjzsp.=+++&&8+.OO+++&&&&+&&&+$++..++&&++++oo++&&++&&&&++++++++",
"$$$$OO%%::++OO&&++++++++++++OO++&++++&+++O$+++Oo.O+:&+O+ iljzzczczcjzsi.%O+++&8+.O++++++&&&&&-+&++++..++&&OOOO&&++++++++++++++OO",
"$$$$OO%%::++OO&&++++++++++++OO++&&+O+++&++++O++O.O+:+++O iljzzczczcjziao%O++&&8&.O+++++++&+&&&+&++++..++&&OOOO&&++++++++++++++OO",
"++%%::OOOO++%%$$++++++++++++++OO&&+++&&+++OOOO+o.O+:&+OO+:: zzczczcjx#6=OO+&+&8+.oO+++++&+&&+&+&++++++ooOO++&&++++++++++&&++++++",
"++%%::OOOO++%%$$++++++++++++++OO&&+&&+&++&+Oo+Oo.++:&OOOO++.zzczczcjx#:+OO++&&q+.OOOO+&O&O&O&&+&++++++ooOO++&&++++++++++&&++++++",
"++%%::++oo::&&++&&&&++++++++++++&$&++&&++++OO+Oo.++:&+OOO:&.zzczczcjxo&+OO++&&q+.OOO&%&++O+&+&+&++&&++OO..&&&&++++++++++++OOOO++",
"++%%::++oo::&&++&&&&++++++++++++:&++++&&O++OOOO. ++:++OOO88ozzczczcjx.8+++++&&q+..+O+&&$+&+++$+&++&&++OO..&&&&++++++++++++OOOO++",
"++&&++++&&OO++++++++++++++++++OO-&O+++&O++++OOoO.++&++O+ %6;zjczczcjzit.++++&&q+ ooO+++++++++&++&&%%OOOO&&oo++++++++$$++++++++++",
"++&&++++&&OO++++++++++++++++++OO=$O+O....o+OO+o. ++$O+O+.uljzjczczzjzsu.+++&:&-+.+oOo...oO++O&++&&%%OOOO&&oo++++++++$$++++++++++",
"++OOOO&&&&++oo++++++++++&&++++++;&+O.O&&#.O+OOOO.+&8+O+8.ilkzjxkxkzjzsi.&+++&&8+..oo.O&&O.O++&+&&&OOOO&&&&&&oo++++++++++++++++++",
"++OOOO&&&&++oo++++++++++&&++++++&&+.O8+O+.o&++Oo +&:++o&.ylskskskskslsy &+++&&8+.Oo.O8+O+.O++&+&&&OOOO&&&&&&oo++++++++++++++++++",
"ooOO++++$$$$++oo&&++++++++OOOO++&++.O++Oo.+++++o +&:++o+.1y>h3g3htg3aX@ +oO&&&5+.OO.O++Oo.+++&+&OOOO++++++&&++..$$&&++++++++++$$",
"ooOO++++$$$$++oo&&++++++++OOOO++&+O.oooOOo&&&&+O &&:++O+  ....++++O. .  +OO+&&9+.oo.oOoo+o$&+&+&OOOO++++++&&++..$$&&++++++++++$$",
"$$++++++++++++++oo++++++OO++&&OO&&+o..O+oo8&OO+O.+&8++.O&&++&OOoO++-&&&:+OO&&&&O.O+o..++oo0:+&+O&&++++++++++++&&oo&&++++++++$$OO",
"$$++++++++++++++oo++++++OO++&&OO&&++o#o##8q&+OOO.+&:++O+++OO+ooo++O++++++O++&:&+.oO&OO###qq&+++O&&++++++++++++&&oo&&++++++++$$OO",
"++++++++++++++$$&&oo++++&&++oooo:&O++&88qq:+O&oo.+&8&+OO+..OO.oo+OOOOOOO+O+&&8-+.oo&&&88rr:++++O++++++++++++++++++oo++%%$$&&oooo",
"++++++++++++++$$&&oo++++&&++oooo:&&OO+&:=&++O+o+.++::+oO&+o.++++&+++OOOOOO+-::8+ oOO&&::8=+O+&+O++++++++++++++++++oo++%%$$&&oooo",
"++++&&++++++++++++++..++::OOOO$$&&++O+:&++O+++Oo.O+8:%&+O+o+O+++++&&&&O++O+--85&.ooOO&$O&&+&&&+$++++++OO++++++++++++oo&&&&OOOO$$",
"++++&&++++++++++++++..++::OOOO$$=$O+O+++$+++OO+O.O+8==&++&+&+&+&&&&&&=+&&&&-988&.oO+++++&+&+&&+$++++++OO++++++++++++oo&&&&OOOO$$",
"++++++++++++++OO++++++oo&&++::++:&++O+$+&+O++OOO.O&88;&&=$5:::::&;:::&5&+&;8qrq&.oOO++++++&+&$++++++++OO++++++++++&&&&oo++OO&&++",
"++++++++++++++OO++++++oo&&++::++:&O+++++$&O++OOO oO:&$++&+&+&&&&&+&&&++&&&%&4:8+.OoO+++$&&&+&-++++++++OO++++++++++&&&&oo++OO&&++",
"++++++OOOOOO++++++%%::OOoo==::&&:&O+O+&++&O++OOOoo....  ..... ..  . ....  ....o.oOOO+&&+&+%&&&++&&++++OO++++++++++&&::++oo==&&++",
"++++++OOOOOO++++++%%::OOoo==::&&:&+O++::&&&&++O++OoOOOOOOOoooooooooOooO+.oooOOOOO+O+&++&&+&&+&++&&++++OO++++++++++&&::++oo==&&++",
"++++++&&++++&&++++&&OO++&&OO$$&&:+OOO$&&+++++++++++&+++OO++++O.oOOOOO++OOOOOOO++&&&O++++$++++&++++++++&&++++++++++&&++++==oo&&&&",
"++++++&&++++&&++++&&OO++&&OO$$&&&&+O+$++$++&+++O+++++++++&++OOooO+++O++++OO++O+&+&++O+++&&+++:++++++++&&++++++++++&&++++==oo&&&&",
"$$++&&++++++++++&&OOOO%%&&++oo++:$+++$++$++&+++&+$&&&&&++&&+++O+O+OO+++++o++O&O++&+++&&++&O+&$++++++++++++++++++++OOoo&&%%++oo&&",
"$$++&&++++++++++&&OOOO%%&&++oo++:&&$$&--$$$&&&&$O&&&:&&&$&&&&&&&&&&++&&++++&+$+-&:-&&&&&:&&&&:&+++++++++++++++++++OOoo&&%%++oo&&",
"++OO++++++++++$$OOOO$$++++++++..&&++++++++++++++++++++++++++++++++++++&++++++++++++++++++++++&&.$$++++++++++++::OOOO$$$$OO$$++..",
"++OO++++++++++$$OOOO$$++++++++..                                                               .$$++++++++++++::OOOO$$$$OO$$++.."
};
