/* XPM */
static char *_526724085883[] = {
/* columns rows colors chars-per-pixel */
"128 128 74 1 ",
"  c #0C2352",
". c #102756",
"X c #1B2D56",
"o c #1D2F56",
"O c #132A59",
"+ c #172C59",
"@ c #1B2D58",
"# c #1A2E59",
"$ c #1D2E58",
"% c #182F5E",
"& c #153252",
"* c #1F3057",
"= c #1D3058",
"- c #1F3058",
"; c #1F3059",
": c #1F3259",
"> c #1F325A",
", c #1F345E",
"< c #203158",
"1 c #213358",
"2 c #203259",
"3 c #233259",
"4 c #23345A",
"5 c #24365A",
"6 c #24365B",
"7 c #25375B",
"8 c #20325C",
"9 c #24375C",
"0 c #2A3459",
"q c #24385C",
"w c #27395C",
"e c #273A5C",
"r c #28395C",
"t c #283A5C",
"y c #2A3B5D",
"u c #2C385C",
"i c #2D3F5E",
"p c #303A5E",
"a c #1D3463",
"s c #203561",
"d c #213663",
"f c #263863",
"g c #2E3D60",
"h c #333E62",
"j c #353F63",
"k c #334162",
"l c #354161",
"z c #374463",
"x c #354166",
"c c #3D4763",
"v c #384367",
"b c #3A4469",
"n c #3F4969",
"m c #3F496E",
"M c #424C66",
"N c #4A4E69",
"B c #51516B",
"V c #59566E",
"C c #424C70",
"Z c #444E73",
"A c #4A5476",
"S c #4F597B",
"D c #5E5970",
"F c #545B7D",
"G c #714473",
"H c #696176",
"J c #5C6385",
"K c #666E8D",
"L c #697088",
"P c #786898",
"I c #737892",
"U c #737B9A",
"Y c #78809F",
"T c #7E85A5",
/* pixels */
"bbjbbjjbb0jjzzzbjjjjblbbbbbbjhgvlkxllxjblbbbbbbjjtbzzbxjkkblbbbbbblxebzzbkjjjxzbxxljblbbbbbbxkwbblCxjbbjbjbjjbjbjbjjbjbbbbbjbbj ",
"jtt2tta2222attt22aajxtatttaaw444ww-2aajjtatewaaw-44w9-,dfkg9awwwaaw->>qqe>sajtt2-aajjwatttaaw-22tttat2t0ttttata2tttatjjtaaatjpt ",
"j2X2Xt2O...X2ttt2XX2222-222-2224qqw-XX22;42222---24w462$*---$2*o--$-4-5we6oX<6et9$=-22224-22X-9>229$$;6lt22222X22X222X22X2t2tt2 ",
"t22222X22tX222Xt22X2XX2-#--$2-----992X2X#;o#--#-$-2-426<=--#2$$2-$-$->>-<2-o<22<--#-oXo2+--$-=$>22222$oo2OXX22t2ttttttttt2t2tt2 ",
"tt22222X22tt2222222X2t2--X--2--2-4--22o2t42o@@2->-$9*2;4-=-44*-X------4->>2;o*;6-4---w2-$##---=-22$94t2o2oXX222222tttttt2t2ttt2 ",
"ttX2tX2tt22t22222222X222-44-2**------2$$2*22to$44XX-222*>-=->>>4--4-X-*>4--;;2*;----$222449---=X@o#-;t222#X22222tttttt22tXtt2a2 ",
"tt22aXt2222222XXX2X2Xt22>>4---XX-$X$$$$224;22*2--Xo-@oX$=-*4>>4-,--*-X-XXXoo$2;$X-$-$94--->---==;2$29$2t222tXa02a2tt2222222ttt2 ",
"jaX2t2tX22222tX2XXX2X222>>Xo#wX-tX-XX$$o22222;o#4-;9o2$oX*X*1>>>-##6-*4-**@o242$oXX$o-22----------92$>4422222pt2222ttttt222t2t2 ",
"zt22tt2ttXXX2222-a>ae*X>-4*XXXX>2222a2a62$-222oXX--->>4a>,e,=---4XXX$*22-4,,a4->2a2aw4#-22-oXXX--$2weeettes22tp22O2Xttttt2tt2a2 ",
"it22t222X222XX224X1>>4X*>-4*>XXXX222X2222X22222*XXXX->-X>14*X4-4->>XXXX2--X--X4>2X22--X422222XXX#o9qttetjputttt2X2222222tt222a2 ",
"iitt2222t2222t22->4-4*4e>4>1*44-t222222222t22222-4>e4--4-4--4w-4>>4--4t2>4-44e->2222-9-e2222222222-2tat2tilt0t22222XX2ttt222tt2 ",
"lbi22ttXt222alptteteleiteteeeteettltitttttttttttleieteeeeeeeteettttewwtteeeeqielttttttwwtttitltttttt2t2ptlCxpbppttj2222222222a2 ",
"bit222Xt222jjpOOO.....OX............OX... O.......OX........................XO............XO......OO.O....O.O..OXXaja22t22222t2 ",
"Ct2222X2222ia tc. tt. tXXXXXXXXXtt. tXXXoXo#XXtt. eXXXXXXXXXXXXXXXXXXXXXXXXXXe .ttXXXXXXXXXt .ttXXXX222X2t. tl. FB.abt2X2222222 ",
"jt2222t2222tX cNX FJ> JbbblbCbCbFJ2 JbbbjbCbCbFJ> JbbblbCbCbCbCbCbCbbCbCbkbbbJ 4JFbCbCbjbbbJ 2JFnCnnbNNANUt JI< FbOXt222X2XX2t2 ",
"ja2222XXX2Xp.tzlCctxll0e-4tttt0etjll0t22tttw0ttjll0e4-wwee0ttt0ttt0tt0ttte-4w0lljtt0tttt22t0lljttttttttttibNZijbj2l.t22t22222t2 ",
"ta2X2t2222Xp.2tjX%%XXXX22X2XXXX2%XXXX22X2XXXX2%XXXX22X2XXXX2XXX2XX*>>XXXX2X22XXXX%2XXXX2X22XXXX%2222XX22222222X2X2t.t2t2t2X22t2 ",
"it2t2222222t.Xtt4*eet22tttttX2ttttt22tttttX2ttttt22tttttX2ttX2ttX4e5et1Xttttt22ttttt2Xttttt22ttttttttt2tttttttt2222.t2t222Xttt2 ",
"jt2tt22t2X22.libX                                                                                               jtt.t22tttpt2t2 ",
"jtt2ttt22X2t..tN.                                                                                               AAX.itttttt2tt2 ",
"ttt222ttX.X2. tC. tt. tXXX2XXXXXtt. tXXX2XXXXXtt. tXXX2XXXXXXXXXXXXXXXXXX2XXXt .ttXXXXX2XXXt .ttXX2XXX22Xt. tt. CC..it2ttjtatp2 ",
"tt22tXttt2Ot. pbX FJ4 JAAAAACbCbFJ2 JAAAAACbCbFJ2 JAAAAACbCbCbCbCbCbbCbCAAAAAJ 2JFbCbCAAAAAJ 2JFbCCCFnFAnJt II2 JC..jatbjjtttta ",
"jt2222lMc22p. tb. pcO Cett0t0t00pcO Cttt0t0t00pcO Cttt0t0t000t000t0000e0t0tttC Ocp00t0t0tttC Ocp0tttjt0jiBO bCO pj.XttVHmbt2t02 ",
"it2t2tDHjatp. tj. tt. kXX2XX222Xtt. jXX2XX222Xtt. jXX2XX222X222X222XX222XX2XXj .ttX222XX2XXj .ttXXXX22222t. tj. tb.Xi2m22atttt2 ",
"ja2tXjCXX2at. tj. bCO CtttttttttbCO CtttttttttbCO CttttttttttttttttttttttttttC OCbtttttttttC OCbtttttttttCO bCO tj.Oi2t%%OaX2t2 ",
"jt2X2ttX%OatO pC.                                                                                               bC.Otta2Oa%Xtt2 ",
"ja22t2a%Oa%tO pC.                                                                                               CS.Oj2Xaa%2jtt2 ",
"jt2222Xaa%X2Ot0ctX22t22XXXXXX22X22t22XXXXXX22X22t22XXXXXX22XX22XX22XX22XXXXXX22t22X22XXXXXX22t22XX%XXXX2X2t222ttAZtOi2XX22ttat2 ",
"ttXtt22X22tt.22ajZbbbbCbbbbnAAANbbbbCbbbbnAAANbbbbCbbbbnAAANAAANAAANNAAAnbbbbCbbbbNAAAnbbbbCbbbbAbbCCCnnNCbbCCAKBi2Obta222t0tt2 ",
"bj2Xtp222Xtt.222a2ttj0j00jjtttttttj0j00jjtttttttj0j00jjttttttttttttttttttll00j0jtttttttjj00j0jtttjttttttiitt0tittjtXit22222t0t2 ",
"bjXXt2222X22.jaaXt22tt2222222XXX22tt2222222XXX22tt2222222XXX2XXX2XXXXXX2222222tt22XXX2222222tt22XX222X2222tt222tpaiOittt2t220ta ",
"Cj22tt222X2t..tmOObb2Obttttttt22bb2Obttttttt22bb2Obttttttt22tt22tt2222tttttttbO2bb22tttttttbO2bb22tttttttb2Obb2OtjX.p2222tt2att ",
"jtO.2t2XX22i. bC.                                                                                               bC..ptt22ttttt2 ",
"j2XXtXXX222p. pN.                                                                                               CC..i0t2t2ttta2 ",
"jXX2Xt22Xt2p. tB. tt. tX2X22XXXXtt. tX2X22XXXXtt. tX2X22XXXXXXXXXXXXXXXX22X2Xt .ttXXXX22X2Xt .ttXXXXXXX2Xt. tj. FF..b00a2ttjt22 ",
"Ct2Xt2t2222t. lNO JI2 IbCCAnCCCbJI2 IbCCAnCCCbJI2 IbCCAnCCCbCCCbCCCbbCCCnACCbI 2IJbCCCnACCbI 2IJCbCCCCCCnJ2 FT2 FS..p0a22tttat2 ",
"bp2t02t222Xt. bj. cNO C22tjtaa00cNO C22tjtaa00cNO C22tjtaa00aa00aa0000aatjt22C ONc00aatjt22C ONca0ttt00tjCO bC. bj.Oj22o2tX0t22 ",
"jt2222alba2t. pb. tj. 2OOOOO%X2Xtj. 2OOOOO%X2Xtj. 2OOOOO%X2X%X2X%X2XX2X%OOOOO2 .jtX2X%OOOOO2 .jt2XXXXXXX2j. tj. tj..pX22t22t2a2 ",
"t2XX2anGjp2t. pC. bCO jOOOX22tttbCO jOOOX22tttbCO jOOOX22ttt2ttt2tttttt22XOOOj OCbttt22XOOOj OCbt2222ttttbO bCO tj..t2lcbjittpt ",
"t22t2amX22tt.pjbX                                                                                               tjb.ttC2%2tp2pt.",
"t22202a%%Oat.2abO                                                                                               tt2.tjt%XOatXpt.",
"t22XX2a%Oa%t.ttt2%XXXXXXXXXXX2XXXXXXXXXXXXX2XXXXXXXXXXXXX2XXX2XXX2XXXX2XXXXXXXXXXXXX2XXXXXXXXXXXXXXXXXXOOOO%X%%OtjtOi2a%Oa%2X0t.",
"t2XX2XXaa%tt.AitCKFFJIACCnCbbbCbFFJIACCnCbbbCbFFJIACCnCbbbCbbbCbbbCbbCbbbCnCCAIJFFbCbbbCnCCAIJFFbbCCbbbbjbNFCAAFbi2OiO2aa%X2tjt.",
"jt2222XXX2ti..btOObb2Xj20t0tttttbb2Xj20t0tttttbb2Xj20t0tttttttttttttttttt0t02jX2bbttttt0t02jX2bbtttt2ttt2t2Ojb2.ttOOi.XO.XX2tt2 ",
"j22222XX Ott. pC. tt. t2X2XXXXXXtt. t2X2XXXXXXtt. t2X2XXXXXXXXXXXXXXXXXXXX2X2t .ttXXXXXX2X2t .ttXXXXXX2X2j. tj. pj.OtXX.Ot2ttt% ",
"j22X2X22222p. bF. bCO CtttttttttbCO CtttttttttbCO CttttttttttttttttttttttttttC OCbtttttttttC OCbtttttttttCO bCO tb.Oi2t22a222t2 ",
"t2XXtXXXX22t. bF.                                                                                               cC..t2t222t2tj2 ",
"t2222222222t. cJ.                                                                                               JL.Oitt222X22a2 ",
"ia2XX.O22X2p. lF. tt. tXXXXXXXXXtt. tXXXXXXXXXtt. tXXXXXXXXXXXXXXXXXXXXXXXXXXt .ttXXXXXXXXXt .ttXXXXXXXXXt. tt. IPOOiXX224XX<j* ",
"ta2tt22XX22p. pF2 JJ2 JbbbCCCbbCJJ2 JbbbCCCbbCJJ2 JbbbCCCbbCCbbCCbbCCbbCCCbbbJ 2JJCbbCCCbbbJ 2JJbbjbjbbbATt FI2 UFOOpo224$X24k2 ",
"jt22j222222p. bFX bC. Ctttt2tt00bC. Ctttt2tt00bC. Ctttt2tt00tt00tt0000tt2ttttC .Cb00tt2ttttC .Cb0tt0002ttxX lcO bbO l$o2#2-e2t2 ",
"ja22t222222tOptbt222t22XXX%%%%XX22t22XXX%%%%XX22t22XXX%%%%XX%%XX%%XXXX%%%%XXX22t22XX%%%%XXX22t222XXXX2XXo2t222t2t$wOi-@2-X#4t22 ",
"l0222222222zO22j2ttttt222222222ttttt222222222ttttt222222222t222t222tt222222222ttttt222222222ttttttt22tttttttttt2o24.iw22X2t2tt2 ",
"jpXtt22t2t2t.tttO                                                                                               tt$OiX2222t22t2 ",
"bjX222222t2p.jpbX                                                                                               x9pOi$ao22tt2i2 ",
"t22222222X0tO.jbO.ttO.a%%%%%%%XXttO.a%%%%%%%XXttO.a%%%%%%%XX%%XX%%XXXX%%%%%%%a.OttXX%%%%%%%a.OttXXX%%XXXX2O.tt..AN#@u6t62t2t2i2 ",
"ttOX2XX22XtbO pbO FI2 JbbbbbbbbjFI2 JbbbbbbbbjFI2 JbbbbbbbbjbbbjbbbjjbbbbbbbbJ 2IFjbbbbbbbbJ 2IFbbbbjjbbAJt IT2 FB.Ot2tttttttt2 ",
"tt2X222tX20tX tb. pCO cttt2tttt2pCO cttt2tttt2pCO cttt2tttt2ttt2ttt22tttt2tttc OCp2tttt2tttc OCptt22222ttNO bFX tt.Ot2tttttttt2 ",
"tt2X22222t2tO tC. tt. tXXXXXXXXXtt. tXXXXXXXXXtt. tXXXXXXXXXXXXXXXXXXXXXXXXXXt .ttXXXXXXXXXt .ttXXXXXXX2Xt. tt. tt..tt2tttXttt2 ",
"it22X22tt22t. tD. bCO Ct222222ttbCO Ct222222ttbCO Ct222222tt22tt22tttt222222tC OCbtt222222tC OCbtttttttttCO bCO tl..p222tttt2t2 ",
"bt2X2X22XX2t. tD.                                                                                               bN.Xit22tttt0t2 ",
"it2Xt2XX2X2p. bB.                                                                                               NB.Ojt22ttattit ",
"tt22XX222t2t. lN. tt. tXXXXXXXXXtt. tXXXXXXXXXtt. tXXXXXXXXXXXXXXXXXXXXXXXXXXt .ttXXXXXXXXXt .ttXXXXXXXXXt. tt. FH..it2ttttttlt ",
"t2X2X22X2t2t.tipCCKCCCCbbbbnbbbCKCCCCbbbbnbbbCKCCCCbbbbnbbbCbbbCbbbCCbbbnbbbbCCCCKCbbbnbbbbCCCCKnnCbCCbbbCDDBFDHDcl.pt22ttt2tt2 ",
"p22OX.2Xtttt.X22t22ttttttt20tttt2ttttttt20tttt2ttttttt20tttttttttttttttt02ttttttt2tttt02ttttttt2tat0tjttttttttti2X2.pa222tt2222 ",
"ttX2XO2ttt2jO222XXXXXXXXXXX2XXXXXXXXXXXXX2XXXXXXXXXXXXX2XXXXXXXXXXXXXXXX2XXXXXXXXXXXXX2XXXXXXXXXXXXXXXXXXX2222X2XX2.ba2XX2t22a2 ",
"ttX22.22tttpOjaatbjtbbttttttttttjtbbttttttttttjtbbttttttttttttttttttttttttttttbbtjttttttttttbbtj222222222tbbjtbt22tOm0Xttttt2tt ",
"tt222222at2jOObb.                                                                                               bcXObt2ttttt2pt ",
"tt2tX2222t2iX lF.                                                                                               CS.Ot22ttpt2Xpt ",
"paXttXXtt2tjO bS. tt. tXXXXXXXXXtt. tXXXXXXXXXtt. tXXXXXXXXXXXXXXXXXXXXXXXXXXt .ttXXXXXXXXXt .ttXXXXXOOOXt. tt. FS.Ot2X2ttt22i2 ",
"ta222Xt2attjO tNX FJ2 JbjbCCCbbbFJ2 JbjbCCCbbbFJ2 JbjbCCCbbbCbbbCbbbbbbCCCbjbJ 2JFbbbCCCbjbJ 2JFCbnbbltjbF2 DI2 HBO.t2t2tttt0t2 ",
"tt2t22tXtt2t. pCX JJ2 IbbbbCCCCbJJ2 IbbbbCCCCbJJ2 IbbbbCCCCbCCCbCCCbbCCCCbbbbI 2JJbCCCCbbbbI 2JJCbnbbbbbbJ2 DL2 HNO.t222a0ttjt2 ",
"ttt2t22tt22p. pb. bCO Cttttp0tttbCO Cttttp0tttbCO Cttttp0ttt0ttt0tttttt0pttttC OCbttt0pttttC OCb2tttt2tt2b. cNO ccOOt2X222222t2 ",
"pt2t2222X22p. tj. tt. tXXXXX2222tt. tXXXXX2222tt. tXXXXX2222222222222222XXXXXt .tt2222XXXXXt .tt2XX222222t. tj. llO.p2X2X22X2t2 ",
"tat2X222t22p. tC. bCO CtttttttttbCO CtttttttttbCO CttttttttttttttttttttttttttC OCbtttttttttC OCbtttttttttCO bCO tlO.p22X2222202 ",
"jt22XttXt22t. bN.                                                                                               bFO.t2222222tp2 ",
"j22222Xt222t. pC.                                                                                               CHOXb2XXX2tX2t2 ",
"jt22X2X2222t. tc. tt. tXXXXXXXXXtt. tXXXXXXXXXtt. tXXXXXXXXXXXXXXXXXXXXXXXXXXt .ttXXXXXXXXXt .ttXXXX222X2t. tj. FB..jXXX222X222 ",
"jt2j22t2222t. cNX FJ2 JbbbjbCbCbFJ2 JbbbjbCbCbFJ2 JbbbjbCbCbCbCbCbCbbCbCbjbbbJ 2JFbCbCbjbbbJ 2JFnCnnbNNANUt JI2 FbO.t22X2222222 ",
"jtt2XXXXX22t.tzlCctjll0t22tttt0ttjll0t22tttt0ttjll0t22tttt0ttt0ttt0tt0tttt22t0lljtt0tttt22t0lljttttttttttibNCijbj2l.t22222222a2 ",
"tt22XtX2222t.2tjX%%XXXX22X2XXXX2%XXXX22X2XXXX2%XXXX22X2XXXX2XXX2XXX22XXXX2X22XXXX%2XXXX2X22XXXX%2222XX22222222X2X2t.t2t22XX22t2 ",
"pt22X222222t.Xtt22ttt22tttttX2ttttt22tttttX2ttttt22tttttX2ttX2ttX2tttt2Xttttt22ttttt2Xttttt22ttttttttt2tttttttt2222.atj2XXXa2t2 ",
"jtt2222t2X2t.libX                                                                                               jttO2Xttttp22t2 ",
"jpt222t2222t..tN.                                                                                               AAX.X22t22X22t2 ",
"jta22X2t2ttXO tC. tt. tXXX2XXXXXtt. tXXX2XXXXXtt. tXXX2XXXXXXXXXXXXXXXXXX2XXXt .ttXXXXX2XXXt .ttXX2XXX22Xt. tt. CC..Ottttttt2t2 ",
"i0t222lCb02tX pbX FJ2 JAAAAACbCbFJ2 JAAAAACbCbFJ2 JAAAAACbCbCbCbCbCbbCbCAAAAAJ 2JFbCbCAAAAAJ 2JFbCCCFnFAnJt II2 JC..Xtjnlttttt2 ",
"iat2tinBbjjt2 tb. pcO Cttt0t0t00pcO Cttt0t0t00pcO Cttt0t0t000t000t0000t0t0tttC Ocp00t0t0tttC Ocp0tttjt0jiBO bCO pj..2jHIbjtXtt2 ",
"ja2X2tNtX2tt2 tj. tt. jXX2XX222Xtt. jXX2XX222Xtt. jXX2XX222X222X222XX222XX2XXj .ttX222XX2XXj .ttXXXX22222t. tj. tb..2bAt22aXat2 ",
"pt2X2tt%%Oa2X tj. bCO CtttttttttbCO CtttttttttbCO CttttttttttttttttttttttttttC OCbtttttttttC OCbtttttttttCO bCO tj..t0pX2OaX202 ",
"ttXXO2t2Oa%2. pC.                                                                                               bC..b2j2Oa2X2j2 ",
"t222O22aa%XX. pC.                                                                                               CS..p22aa%O22jt ",
"ttt22XX2XXXt.t0ctX22t22XXXXXX22X22t22XXXXXX22X22t22XXXXXX22XX22XX22XX22XXXXXX22t22X22XXXXXX22t22XX%XXXX2X2t222ttAZt.t222XX222jt ",
"pt222222222t.22ajZbbbbCbbbbnAAANbbbbCbbbbnAAANbbbbCbbbbnAAANAAANAAANNAAAnbbbbCbbbbNAAAnbbbbCbbbbAbbCCCnnNCbbCCAKBi2Op2tttttttt2 ",
"taX222X2222j.222a2ttj0j00jjtttttttj0j00jjtttttttj0j00jjttttttttttttttttttjj00j0jtttttttjj00j0jtttjttttttiitt0tittjt.t22tttttttX ",
"i2222XXX222p.jaaXt22tt2222222XXX22tt2222222XXX22tt2222222XXX2XXX2XXXXXX2222222tt22XXX2222222tt22XX222X2222tt222tpai.p222222jtt2 ",
"jtt22X2XXX2i..tmOObb2Obttttttt22bb2Obttttttt22bb2Obttttttt22tt22tt2222tttttttbO2bb22tttttttbO2bb22tttttttb2Obb2OtjX.tt22222ttt2 ",
"btt2X22X2222. bC.                                                                                               bC..t222222ttt2 ",
"bjt2222XXX2tX pN.                                                                                               CC..t2Xtt222Xt2 ",
"bjt22222X2ti. tB. tt. tX2X22XXXXtt. tX2X22XXXXtt. tX2X22XXXXXXXXXXo@XX@X22@2ot .tto@oo22@<@t .ttXXXXXXX2Xt. tj. FF..tX2t2t22Xt2 ",
"jtX222222ttiX lNO JI2 IbCCAnCCCbJI2 IbCCAnCCCbJI2 IbCCAnCCCbCCCbCCCbvCCCMACCbI 2IJbCCCbACCbI 2IJCbCCCCCCnJ2 FT2 FS..222X22222t2 ",
"t222222X2tXbX bj. cNO C22tjtaa00cNO C22tjtaa00cNO C22tjtaa00aa00aa0000aa9jt22C ONc00aatjt<<C ONca0ttt00tjCO bC. bj.O2X2X.X.2Xt2 ",
"tt22X222t22p. pb. tj. 2OOOOO%X2Xtj. 2OOOOO%X2Xtj. 2OOOOO%X2X%X2X#@<@@2@%OOOOO2 .jt@<@%OOOOO< .jt2XXXXXXX2j. tj. tj.2XX2tp2X2tt2 ",
"tt22X2zcbjip. pC. bCO jOOOX22tttbCO jOOOX22tttbCO jOOOX22ttt2ttt<tttttt22@OOOl .Cvttt22oOOOl OCvt2222ttttbO bCO tj.XX2nGjp2Xtt2 ",
"jt22XtC2%2tt.pjbX                                                                                               tjbOX2mX22tOXt2 ",
"jat22jt%XOat.2abO                                                                                               tt2O22a%%OaXtt2 ",
"j22XX2a%Oa%2.ttt2%XXXXXXXXXXX2XXXXXXXXXXXXX2XXXXXXXXXXXXX2XXX2XXX<XXXX2X@o@XXXXX@o@o<@X@@@@@XX@oXXXXXXXOOOO%X%%Otjt.22a%Oa%Xta2 ",
"ttX2XO2aa%Xt.AitCKFFJIACCnCbbbCbFFJIACCnCbbbCbFFJIACCnCbbbCbbbCbbbCbbCbbbCMCCAIJFFbCbbvCMCCAIJFFbbCCbbbbjbNFCAAFbi2.tOXaa%XXtt2 ",
"paXXX.XO.XXO..btOObb2Xj20t0tttttbb2Xj20t0tttttbb2Xj20t0tttttttttttttttttt060<jX<vvttttt0t02jX<vbtttt2ttt2t2Ojb2.ttO.tX..OX&2tt2 ",
"jt222XX..t2X. pC. tt. t2X2XXXXXXtt. t2X2XXXXXXtt. t2X2XXXXXXXXXXXXXXXXXXo@<@<t .ttXXo@XX2o2t .ttXXXXXX2X2j. tj. pj.OtX..  2Xtt2 ",
"ttX2OOXXO2t2. bF. bCO CtttttttttbCO CtttttttttbCO CttttttttttttttttttttttttttC OCvtttttttttC OCbtttttttttCO bCO tb..t2OttX2Ott2 ",
"t2XXXOOOO222. bF.                                                                                               cC..ttXOX22Xtt2 ",
"t2XXtXXXX22t. cJ.                                                                                               JL..p2X2Xt2Xtt2 ",
"tt2X2.OX2XXiO lF. tt. tXXXXXXXXXtt. tXXXXXXXXXtt. to@@@o@oX@@o@@XXXXo@@o@@o@Xt .tto@@@o@Xo@t .ttXXXXXXXXXt. tt. IPO.t22222tX2t2 ",
"tt22X22XX2ttX pF2 JJ2 JbbbCCCbbCJJ2 JbbbCCCbbCJJ2 JvvbCCCbvCCvvCCbbCCbvCCCbvvJ <JJCbvCCCvvvJ 2JJbbjbjbbbATt FI2 YSO.t222X2tX2tt ",
"jt22t222222it bFX bC. Ctttt2tt00bC. Ctttt2tt00bC. Ctttt2tt00tt00tt0000tt<ttttC .Cb00tt<ttttC .Cb0tt0002ttzX lcO bbOaj22ttttttt2 ",
"jt222222222tbiXOOOOOOO.OOOOO.OO.OOOO.OOOOO.OO.OOOO.OOOOO.OO..OO..OO..OO.OOOOO.OOOO.OO.OOOOO.OOOOO.O......X2OOO..OOaj2XX22222at2 ",
"tt222222222ttijpjjtiiiptttippptxlplleiiiptttippptzjpxjtiiiptttippptllpjjtiiiptjpjjtiiiptttippptztttttjpppbbtpbppitj222222222tt2 ",
"paXa22222tt222tt2222222Xtt2222ttte224>>-2Xtt2222tttt2222<<<ott2222tttt2222222ott2222222ott2222tt222t222t20ttt000tttt2.X22222tt2 ",
"jt2t2X222tttt2tt2222t2to2XttXt2tee>>->e4t#-o6w2626t6*222t<t@<ot9ow2tt922226;tott222<t2to;*46*646tw2X22X22X2222222tttaX2tt222Xa2 ",
"jtXatX222X222ttXX22*oXo$262oXXoteX=*4*XXX2264oXX*66<*<2oXXo<462$oo2692o*22o@o;3ooo2<@@o224*o**44w--w2X2222t222X22jttXX22222t2t2 ",
"jtX2XX22XX2tbtXt22#$222222222$$9*44---4--9--222$262622*;*222222o$222262;oo2222$42-$22222>->-**>54-54-**422tXXXX2t22X2Xt22222tt2 ",
"jt2X2tt22X2ta2Xt22222222-o$22222*44--->->--$;22*222222;22222;o<<222$o2222222222222222222----4>>-<>-4>4eeaXt2222222X222tXXX22tt2 ",
"j2XXX222222222222tt22tt22X2X$2oX*226w444w9--*;o;oo2260622tt22@2@22oo;2299620t4222wt226t24=-=--***>4-:>-5t2X2t2222Xt2t2t22X22tt2 ",
"tt2X2a2222o222222222t2222o22222222229-q4-$-$4*2<-<222222t2222o222222222222t2222222229622-X*4>>>*4->11>4>2t222ttt22t222t2X2222t2 ",
"ja222a2222t2attttt22tt222X22to2Xtttt22tt9--#22t@2otttt22tt22<@22to2@tttt22tt22tttt22tt-14*->tX4X-1:*-4->2222tt22222t2ttt22222t2 ",
"jttaatiittaotttjtttattjtt2tt22t2txtttattkwt2tt22t2tjtttattjtt2tt22t2tjtttattjttjtttattltw>te-1e-aee>aaa>attajjtatttttjttatttttt ",
"tt2222222222222222222222222222222222222222222222222222222222<22222222222222222222222221>>>4*1>>>4-4--11>22222222222222222222222X",
"                                                                                                                                "
};
