/* XPM */
static char *_526574059758[] = {
/* columns rows colors chars-per-pixel */
"128 128 38 1 ",
"  c black",
". c #070707",
"X c #0B0B0B",
"o c #170F07",
"O c #0F1700",
"+ c #0B1707",
"@ c #171F07",
"# c #1F170B",
"$ c #131313",
"% c #1B1B1B",
"& c #2F1B0B",
"* c #2B230F",
"= c #372313",
"- c #332B13",
"; c #3F2F17",
": c #3F2B1B",
"> c #232323",
", c #272727",
"< c #2F2F2F",
"1 c #373737",
"2 c #43331B",
"3 c #4B371B",
"4 c #473323",
"5 c #4F3B23",
"6 c #4F3B2B",
"7 c #533F2F",
"8 c #5F4323",
"9 c #574333",
"0 c #5F4B37",
"q c #6B4727",
"w c #7F532F",
"e c #67533F",
"r c #434343",
"t c #4B4B4B",
"y c #6F5743",
"u c #7B634F",
"i c #8F5F37",
"p c #8B735B",
/* pixels */
"4qy0u77q7y7740077777444740940444440000775774774000006644777744448880444444474474740477457777007970008y0060087844770400uywyyp00qe",
"&44:44***=:*****#*&&:&##*#*#*%%#*#**%%%%#*##%*%*%#%%####%%###%#%%:::#%##%#%#%##%#%#%%##*##%#**&&====*4****:---*****##&=444464446",
"*:4:*:*%#****####%##%###o########*#***#######******##oo###########***#####o#####o###o##*####o##%#*#%#::%%##***%###%**###::=434::",
";7:*#o*#o***#o##oo#################*######*########*ooo######*#*#o##o###o##o##oo##**#oo*#####o#########oo#***#oo###oooXo#*%44-55",
"&:**###o#*#*#####o####%***#######*#**########################*#*#####o#o#####*####****######o#ooo#######*###*######o.o##oo*&&:-&",
":::###oX..o*##########*=**&***####****#######o#########**o####*#############o#####o#*##########ooooo####*#*#######*.o:54*Xo#***:",
"***##o.X#*#Xo*########*:44*4::&&&*&&:&**##**##*&&::&:**&*%&&::::&&****&*&**&:::-**#&:**#####&&**:::&&&&*******#####X#:X*o.#*###*",
"***##Xo:04:.#**###*###=o$.X..X.....XX......................XXXX...............X...X.XX................X..=:::*#####Xoo#X#X%=**#*",
"%#%o#oo*o#XX#######*#&X.                                                                                ..4**######X.XX#Xo47###%",
"#**##oX#o.oo#=######&o.   XX#%#$... ..#%$.XXX. .XXX..    #..XX#$#. #X...#XX$XX...Xo$XX$. .X$...XX.XXo    .X:#**#####o.oo#:04##*%",
"#**##o...#X#:4*###o*oX  .XXX#%*%XXo.#*%****#oX#$*%o..  . %*o.o>*#oX .. X*XX*%%o###%****. .##oXo*#*.o%X    ..*#o##*#:#***5q0:##*-",
"o**####Xo**:74####*o.   .*oOo#$o:<#o.*:#Oo*#****%%*o$ .*oo::O:r:>o:X. oooXo%Xo****O*:r:o ooooo.O#r:*:*.    .o*%###***:70y0-#****",
"##**##**44807***%*=o   X.:>##****%  .. :*.:*#t%##*%#*<###%#4<#:<*o>#. X.####%*>**#*>*r:. ###+#o***<<%*o     o:*%***-***:***#***4",
"X*##o##*-57:**#*::4#X..Xo*:**:#o  .X## .X#4+***##X*<#o*:+#*%4:r4# *o.  .*#*#%:r##:4*::#. o:%##o**r:<4#o .  X#4::*#*:-***#*###*--",
"X#########****#***=:#o  o*:<::#  o*$*#  o###:<*#%oooX%#:>*#*:#*<#O#*..o##:<:>*X#:,4*:>#* o#o.# .*4*:%o.X. o#:=***#****##**####:4",
"o###*****#***##***=*=#X.o%*#*-*  *>*oX oO#**r-r*#*oX#**::<#*4##<#:##X**:%*O#:#o4::rr:X#%o4#Xo$Xo#,-<#oX  o#=*=***###**#####*#**4",
"X##***#*#*#*##o**%%##*XXo#*X*::**:=<**.o#   X#*#*#O#:<:>*r*:>**:#>###**r:. X# .>:*##oX%*#>**##X#=*4*XXX oX*##%%**o%#%####oX#*%*-",
"X###**##*****%*:#####o*XXooo:*%**%#%4:X#*#  ..#*O #X#.$*%:::4:*%**##***::*oo$. .**X$o*:#%.X*###4>**$X. XX*o#####:*&*#*#oo##o#%*-",
"X#*#*#o####*#-;*&##oo#o*oXXX*###*%XX:, XO#*X .. X*##*#  #:<4<4r*:<:%:%*#X%*##X  #X.*#oo   oX$**X:*o$. .o*o#oo##&*;;=**%%%##*#*-;",
"X##*##o###*#%:=:*oooooo#=##..#%#**o#.O.#*.*X.*#  :#XO#*X$**<:#*<:*#:<**$.#*...  .X .#*.# .:*>%4:*<*. X#=#oooooo*::664:**&%#*#*-4",
"X####**#**X..o:*##o#o####:#o.X**>.*$.X****4oO.X  #Oo*X*XX*#::>:::4>::#*XX*$#XX. .Oo%7r**Xo#.<:.>**o X#:####o#o##*:oXoX4::=%#***:",
".#######%oX  XX*#o##o###*#:#o $#*.o*X#*<:*>.o .X :.#**:oo:**#4r::t4#**:oo:**#.##*##**>4   Xo*o.*#$ oo=#*###o##o#*XX  Xo53:=#****",
"X#######..  ...X*##%#oo####*oo.$#Xo##.$:***X ooXO#:o#*:o*:o%:O4:<7O4>#:*o*o*>#+X###X#*:o   o#oX#$.oo*o###oo#%##*X.    Xo94*%***4",
".#####%..  XoX.Xo=#####oo#o#*#o..X oXXo%:*:XO*.  #+*O*<>*:**<*>:<:**:*4:<<oo###Xo>*X*<:#O  Xo X..o#*#o#oo#####=oX .    o#6******",
"o*o##**.  .X.XX.Xo**#oo#ooo##=#o   XOXoo#**oX# ..*.X:r:*<<:#:>4*4<:*<4%<::r<%oo#*#:#*:$  X.OX   o#=##ooo#oo#**oX $#o..  o:#*#**;",
"X###o#*o .XXXoX$ .X=###o####o#:o. .#%*#X#%*#XX#oXo#*#:<##O#<:***:::*>*4r<>:*:<#o*#<*.##. #*%#. .o:#o####o###=X. XX$$*#. X=#*##*-",
"o###o#*#.$oXoo%#. Xo*###oooo##&=oX X+oX#*<%o..o$**###%***o$****>$***44>:**%##*<:%*:*X.<*#Xo+X Xo=&##oooo###*oX .o%#o##o .*#o##*:",
"X#####*o.X#XO#o#X  .o%###oo#o##o=#. X. oo*##oX*<:#<>:*o:<X X***#***>:%*<:#*:><#:r:***o*oo .X .#=o##o#oo###%o.  X#*%*##X X&####*:",
"o##o##%o .**.O.#%. ..X###*###oo##*#X   ..##%*>>:*<*##XX*#OX#**OO::<-*%##*oX##*<*:<r:<##..   X#*##oo###*###X.. .%*oX%*## .&o###::",
"#*#ooo*# .**O#.#X .X .o***##oo####-#X    %o##>:*>*#>oXo#%*%#::*#>744*%*%##Xo>#*>*:<**o$    X#-####oo##***o. X. .:##<*.X .*##o***",
"#*##o#*#..o%*. oXXo$. .o:####o####o#X#  o*oXO*o .X%#>:#$*. .#%**:4r<%oX*$#:>#%X. o*OXo*o  #X#o####o####:o. .$o. #+##:o  .*###*:*",
"o*####:#.$o:*<O .#oXo. Xo*#oo######**#X.#%.#Xo#oO*%o*4<oo$#**#o#$*t77<###<4*o%*Oo#oo#.%#.X#**######oo#*oX .o.X##Xooo*#X .:*##*&*",
"#*##o#4#.$*#<4*  X$##o...o*##o#o#*###&## Xo**o**:%*.*#*>*XX+*o#.o:.Xt:*>>*#*.*%:**o**oX ##&###*#o#o##*o...XXX.XoOoo*%oX .:o*#***",
"o####*:*.#o%***X  %*o#$$ .o*o#####*##*:#o.$XXOXX:#.X*o*: XXo*o#%tto 0r:***o*X.#:X.O.X$.o#:*##*#####o*o. $$o  .%*>##%#o. o*ooo#**",
"#&*o#*4* X.*r*#Xo* %####. Xo*###**#####&#o.   XO*#$$4rr$ o:o*<**40*X :<>#rr4$$#*OX   .o#&#####**###*oX  o#%X.X*oXo<*#oX .*.o#o**",
"#*###*4# Xo*##. X*##o*o oX..o#oo#*######&#o.Xoooo%X#t*o Xo$o>:<4<4r* X7**%*t#X>o#ooX.o#&######*#oo#o...X .ooX XXooo$ oX .*##oo#-",
"#*##**4& X##OX  *#*r:#+X#o. .o&o**######o%o# oX. oo. :*  ##*:<4>:r7:* $:<#*  XX .Xo #o%o######**o&o. .oo..#:# #<<<#***X .*#o#o*=",
"#%*##%4* Xo#<*#X<*=*%###o$o. .o**#####oooo#oo .$:%X..<ro ..X:<<4r->rrX*r:%%  X<:$. oo#oooo#####**o. .o$o% $###$=**#*### X*#*##*:",
"#&*##&4#  o###.O#*>*o#%#.o:o. Xo:*#####ooo##Xo .%<$#o###o o #*<:44:*4:4t<%##*%<%. oX##ooo#####*:oX .o:o X Xo$X.#*X:*o.X .;#%##*=",
"#&%##:7& $o%:ooo#X#*<*o*X%,oX. Xo%oo#oo#o##o#XX  o*$oOX#>##o#:**4<:rtr::*#oo%:o  XX#o##o#oo#oo%oX .Xo,=$. .##o##:#:Xoo# .;####*-",
"#&%##:4&.#X***X##*#*%:Xo.#o*o . XX#oXXo####oo#XX  $#o#*#%X#X*#:<r:*::r:<>*#o#$  XX#oo####oXXo#XX . o*o*o.o .#X*#ooo*XXX X=**###=",
"#=***:6=.$oo#oX#*4o,*##%###:<o%. .o*##*#####oo#oX X.Xo$$#####X:-:%<%*<r:%#oX.X Xo#oo#####*##*o. .%o<:#*oXo X  #*X . O*X X*%*###*",
"*&%##=6= .$###  *#*ooX%%#%*X#*#X. .o*#**######o#oX  ooX#.#*Xoo,#*::4tr*X#Xoo  Xo#o######**#*o. .X#*#.*#X.o#oo      Xo*% .=%##o#:",
"#:*##&6=  .**# X:%.X *oo##$.*#*<#..X#**######**#=#o.$X  %4*o##*<417144<#. X$.o#=#**######**#X .#<*#*.Xo#oX.X.. o  *%oX. .-*oo#*:",
"#*%##&6=  .#**  o     X.#>:<#.*#:X. X#:########***#o...o:##.X*o:%*r*,*%:oX..o#***########:#X  X:#*.#<-#.X  .#.O#o. #:#  X*####*:",
"#:%##&4:. oo**  .o..  #.#<*:o=# oXo. Xo*#######**#*#o..Xo*X-%#:r7>:::#*oX..o#*#**#######*oX .oXo #=o: o.    . >$**#.### .*#o###-",
"*:###*5:.$.OO#o  oO.  .XXo:*XO* *#oXX..o*######**##=#o X.#o#*<*:rr4-*##XX o#=##**######*o...Xo** *O o. oX ..  X*XX:< X. X;#####*",
"*:%##*4: #X# .o#oo   oo#o#*oo.o #O X#X .o*######*#*#*#o.XXXo%74r744%#XXX.o#*#*#*######*o. Xo. O# o  .#o o  .. o#O#X **# .*#oo##*",
"#=##o&6= X###o##**O  X*.##*XX. :o.#***. Xo*##******##*oo. .o.r4444<Xo. .oo*##******##*oX .##*#.o:    *o##X    ..oXo%X X X**o###4",
"#:*###4*  oX=$.X**X.*:#**o#**XO##..o#*o. .o**#####***#&oo  .X****:#X.  oo&#***#####**o. .X*#o..##O.*<o##o*X    . .##* X .4*o#%-4",
"#:*##&4*  ##O  ##oOo*#o% :<*o#XX. o***X....o%#%&%%*####*#X..%*:::*#$ .o#*####*##%%#%o...  *:*o .X. .# XX#:#o X#=*o*#*.# X=####*:",
"#**###:#  o#X*OoO:*X:*  X#*:*%**#:r4O.*o.X.Xo===&&*#####=#o.X*>4:*%..o#:*%###***&&&#X.X..* O4r:##*O *.X#XOo.  .#:*:%:%. .*#o##-2",
"#**##*4-  o#*  *#**Oo..oX#*t<#%O*<*#**X %:$..#:=%=&*#*#o#*##.$,:<%X.X#:*:=*###%#*:*X.X:%  ::#*<*O*X XooXOoO#*XX#**#oo.  X*oo##-4",
"o*###*6= X#*:  #*r4*. X..#>:4-*XO*   X..%*#$..o##*#:**##o#=##.$%:$XXXooo#=*#*####*o..#*,X     *OX#O  o. o##*O .#*##**   .*oo##-2",
"#*###-6= .#:o#*o*4,*#OX. .##%**#:<<. .XXo$**$. Xo**:**##o##=#oX*%##Xoo#oo#*#*oo#*o..o*$*X*  .rr7##*X o   XOo.o.X**#*X   .###o%=4",
"#-*###6=.$*%#**##*#o.O    .**%**#ooX  .X#*%*#X. Xo#######**#&##X##oX.X##o#**o##*o..$#%-<ooX #**>4X**.*#X#O*#oXX#*<*o.   X-o#o*&2",
"#-**##4* $#oo$+##:O.       .o:.#   XX.  .#%*#o.. XX###o##**##=##XoX..X$o#o##*#*o. $#*<4<# #o%oXo<#*Xoo .##**###<*04,:o  .**####*",
"#-*###:* $*:*. **%## . . XXo#.Xo        .o*#*>o%. .o##########=##X.XX.$##ooo*:#o .#X***oO .  #%#X$o#oX Oo***OX:*>:%%*X. X*oXX#*-",
"*:**##:#  .**# .*#**oX. .#r:>*<*O*X     oX*:%#*#X..X##oo#####*#**#.X.XX$.XX#ooX.X##<r7<<* . ..o**<*>:<.#*o##..***4>**o. .*oXo#*2",
"#**o#o*# $#XO*. #:<4# .   %=*X*XoX:$ *#. .X#**##<#..X##o####*#*#**oXXX. .X#oX..Xo*<4<4<:#%#o##o#X*X*=%.###.#X.X%4<*<#.. X*Xoo#*2",
"*-*#***o.# . OoX##.O*#X.  #>*##%o #*oXXo#.X$**###*X..o%#######XXo##oXXX..oXX..Xo#*>:%**<,:O %=X#%##*>*  ##o##.o*4rr:%o  X*ooo#*2",
"#-%*:**o X ## .  %77*:o*X <#*#*.   oX XX%*#o**###%#$.Xo*##*#o#*#XX##oX$XX...X$%*##**:<<#:*#*%X  .*#**<#Oooo*# #*%*4#:o. X*o###-4",
"*-:#:44#  . .o . X4,*o#<X #o.*<oX# .     .$$$*##*<#%#XXo****X:40:oo**#XX...$%#%*o**$%**#%##oX.#Xo<*Xo#*#X ##X o%****>o  .*o##**-",
"*::***4*      o#o#OoX #4%o$*#%*#<*oX  o# X#o###*##o%#o..o%##XX#o*oo*:%oXX.X#<+oXX#$#o*#$#X..Xo*<#*><:*XXoX*##oo%:*<##o  .*###***",
"#**##-7-. .#>. ::#o:*..%#<o#**:*.XXX:oo O%#####o#oX$*XX.X#=#oo.o#X###:*o.o.####oX#####%#X.o:XXX.**#*.<**#.X%*X$X***<*.  .-o#o#*4",
"#**##*;*   Xo  .X#X#X.##o<*$:*o<*% X*Xoo.X.O##*#o#$......o*:#X#..X####=#o.XXoo#X#*##O.XXXoO*X %*<o*#*X%o##X##X#+#:>**X. .-#*##&:",
"#=%*#o:*  o# : .oOXX*#X.  o::***#XooO. o.o.$*%*%#. ...XXX.#::#*#X######*#o.X+oXo%*%*$.o.X XOooX#**%*#*. .X#%o%oo>::<*#. .4&:#*#4",
"****#*-*   >.   4*o##*XX<r#X$.**.Xo%**oXo  X**##XX ..X.X.X.*:4::*#######*#X.X$X+****X  o.X**%oXX#**,#%r<XX*#ooX%*<**%#X .;*=#***",
"*=%*#*-*  #.##X:#%-*o#X.#:##<:*>o#XoO#o*>%#####.X. .X##XX$X.#*4:*#####oo#*oX.XX.X#####%%#o#OoX*:@o*>##:#.X#X*XX:o**#oX. .;*****4",
"#=***%-* .X** #4 *<o:*X.$#**<*>*o#oXoXX.o.%*<*#X ..X#%o..XX .o#=*#o##oo####oX ..X#:<*%.o.XOo#o%*#%*<**#$.X**%$#:%#O%##X .*#%%#*4",
"#-****-* X.O*44* :%*#># #%.<**ooXoo.XXoX#o.Xo#*$ .o#*oooo#%X .oo=*#####o#oo#oX  $**oX.o#X. .X..oo***<X%# #%*#o.o#ooo. . .*##o%&4",
"******-#  **%::o%o*:%o .>*#4*o#*#*#X..o##XX .*X..X#=###*##$#o$.Xo:%#oo####oo*oX.XX*. XX#o.  .X#**##*4#*>. o%#   ..X .o. X&#####*",
"*-*****# .**X#>4t#*::..#*#*#..*%*#*#>:**##$X....o#*&=%%***oo$oX Xo4*#####ooX#*#o....X$##*##o#*#*%*..#*#*#..*X  **#o:#oo .&*##*#*",
"*-****-#.Xo:*o**:***:*#X#*%*ooo*:XX.o#*X##. ...o#:##%==%##Xo.... Xo:###o#oXo##:#o... .##X#ooo#X:*ooo*%*#X#**X.X*:*X O.X .**#**##",
"#-*****# X.*:***###%r**OXo#*# ##O.. o*#.oXX ..o#:*###=4%###.. X$XXXo*######o##*:#o.. XXo.o*o.X.O## #*#oXO**<#X#o oo .   .*###*%*",
"#=*****#. #**%:r**#**%*#%#*###>*#.  o#Oo X. .X#&*##o##*:*%X. .$%#X.oo=*###ooo##*&#X. .X oO#o  .#*>###*#%#*%**XXXXo*%*.  .-***&#o",
"#=*##**# .o:**O:r#X#**:<*#:*%#%#*.  X  o. ..X#=###oo###*ro. .#*%%o. Xo%#*###oo###=#X.. .o  X  .*#%#%*:#*<:**#X ##X*#>o. o&##*-=:",
"#&###### X#**#***. **7<:<:>*#. +*o .      .o#*######o#%*#. $**>-:%#X XX%%%#o######*#o.      . o*+ .#*>:<:<7**  XX.*X:%X X**o#&::",
"*=%#oo*#  #****O**:*#,4>*4:%##XXO     .X..o#&#######o#*#.  X<<:*>:<%X .X%##o#######&#o..X.     OXX##%:4*>4,#**X*o#o ##. X-o#***:",
"o*#*##*#   O#:<o#4r*##>*.#*#o.#.    X  ..o#=#######o###...#%*::--:<:#X .X*##o#######=#o..  X    .#.o#*#.*>##*<#.o*oX#.  o&****:*",
"#&###*=* X  o* .o%*<4:*###**oXXoX#     .o#=#########*:X. $#*%::*,:-<:*$ .X:*#########=#o.     #XoXXo**###*:4<#. %*#:r#  .**##%*=",
"o####&4* .o.  .o  .::%**%.*##..*o   . .o#*########***X. .X><-*:*:<::<rX  .X***########*#o. .   o*..##*.%**%:*o. # X***X o*###***",
"X####*:*   ##.*:$.:t:.O#% *%*X..oO  ..o#=########**:X. .#$****,**4:::*%#. .X:**########=#o..  OoX.X*%* %#OX:<XX X..$*XX X6%#o#*:",
"o####&:*.  .***:r::*>oX.o.o:$X # .X .o#*##########*oX .X#*%:<**7<**<4%*#X. X#*##########*#o. XX.# X$:o.o.X#:r. ..#. *$X #4*#**==",
"X#*##*-#..  .%*o#r>**###*O###oXX.  .o#%##########&#X XooO<**:#o*-##***<OooX.X#&##########%#o...XoXo###O*#o*<#  ##**X##$ X:*##%*:",
"X****#=# ... o. #%:%4:,#X=o#XX.o...#%:*#*#######&oX..X#oO*#*-**.Xo*****Oo##X.Xo&#######*#*:%#X.Xo.XX#o=X#%oXX  $$*X X.  X:*#%%::",
"X####o*o    o#X o*<:*%o*o.ooX  ..X#=6**#o*#####:#X .#$o-#o$***#**:*::%o#*#%#. X#:#####*o#**4%#X..  Xoo.o*#*%>:>X    #X  X4*%#%*4",
"o#####*o... .#*#*O#*#XXo%o#oo.o..#:7:%ooo#*#*#:oX   X*#**oO#*##<4*#:#Oo#####   Xo:#*#*#ooo%:7*#..o.oo#o%oX#*:<<#$ rtX.  X4=&#%*4",
"X*###o** X. o**#O#*,*##ooo.X.X..#*4#***#o*#**%oX .X.o*<:*#*#*o#4**%*#%#o#r*#XX. Xo%**#*o#***#4*#..X.X.oooX%<<<*,:tr#  + .:**#%=*",
"X#*#*o&o  .o**#*#****+##X**#  .o#:**&#*o**#*&o.  ..o*%**:%#*#*4>**:**##oX:##o..  .o&*#**o*#&**:#o.  #**X#*X%:=%*r<*.  . .*###*=*",
"X**#*=:*  X.#=#o***XooO##oo%X.o#=###*##*##%&o.    o %<:*,*o#**r4,:*#oo#.X**%.o    .o&%##*##*###=#o.X%oo##O##<%o#<7o#>o  .##oo**=",
"X##*##:*  ..O##o#oO*#X*Xo#...X#=#########o*o.    X .#*<**X#*%4:*::*o##X*X**#. X    .o*o#########=#X...#oX%*<4%<*%r*<#$. X#oo##**",
"X#o#**:*   Xoo#@#o#*#O#oXX$.o#*o**###**#*#X.    XX.X*<#<*#o*##>:<:*##ooO**<*. XX    .X#*#**###**o*#o.$XXo#**<:r%#4rr# $ .%##****",
"Xo##**:*   .#%**o#**#o .X..o#=##**##o###:o.    .#.*%4#*:#OX#******##oXXX**#:+* #.    .o:###o##**##=#o..X. #%##%*%*<**$. .=*##:=*",
"o*###*-#...Xo**#OO**O . ..o#*o.o####o##%o.   ..X.$:%#*##*#*%:%*<4**:%*#OX#**#*X X..   .o%##o####o.o*#o.. ..##**<r**<r*. $4**#%*:",
"o####*-#.X...*:#X.XXoo  .##*#oo##**#o#*o.   .   ##*:#O#O.X**%*O*:*:***X X#O#*###   .   .o*#o#**##oo#*##.  oO.%:<r<#*r%X o4*%%#**",
"o##o##**  .  #**o#o#Xo..#**#oXoo#*:#*#oX  .   . .*X*#o#%. o***#*<7,**#  ##o##X*o..   .  Xo#*#:*#ooXo#**#..oXo#%<<:.X%*X #4**:*==",
"o#*###&*  .#X+*ooO**.X.o#*#**oo*#****oX   o   oX.#:%:#*#X #*OX *7$oO*# X#*#:%:#X#o.  o   Xo****#*oo**#*#o.X.**#*:rr%XX$ o4****:;",
"o****#&*   . o**Xo##X.o#*#o**#*o****oX   .   o. oo#*%##XX :*O.X*rooX*: .X##%*#o%.X#.  .   Xo****o*#**o#*#o.X##o#:<<:.   #:%***:*",
"X**##*-*   ...<#o##+.o#-##o##*##***oX . .X  oo. Xo#Xo#XX. o>*Oo4*##*>o  ..#oX#o*.###  X. . Xo***##*##o##-#o.+##o*4>%o   #:*#**:*",
"X#**#*:*   .X#*o.XX.o#*####o#**o**oX .XX  # oo# .*X **O.. *4:#**<:%*:*   O** .*o.*%#.#  XX. Xo**o**#o####*#o.XXX#**o.   *:###***",
"X*****:#  ..*#*#o..o***#####***o:oX .  *o O*  o .#X#O.Xo. ****:***:***  .X.O#X*X.*#o#O o*  . Xo:o***#####***o..o#*#*..  #:**##*:",
"X#**#*&#  Xo*%#$X.o#:*##*###****oX   o  #..4   ..*<#O #*X.O##O*.**###O..*o O#<*#**<#:..#  o   Xo****###*##*:#o.X$#%*oX  #&*##%**",
"X##**#:#  . X##X.X#*%**#**#o**:oX .  #*  O *   .X%#  *##XX .XO##**OX  .XX#*  o%*XO#$* o  *#  . Xo:**o#**#**%*#X.X##X .  #:#*#***",
"Xo*o*o-#  .+#X..X#*##o##*####*o. X.  o##*#  X   XX.  X#%$.$oo=#**X%.X   X#X      .$o*##*##o  .X .o*####*##o##*#X..X#+.  #-**##**",
"X##*#o=*5  Xo..oo*##oo###*#o#X...$#. o.X # .#.  #$.#*#*#$$.o$**<:##.X   X*#*#     o%oX#.X.o .#$...X#o#*###oo##*oo..oX  3*4*%*%*&",
"X####*#488    oo*#oooooo*#o#o. .X.o#o#Xo . X#  XO..#*#o##XXX*$#::*$*XX  .o#*#. # .o#:oXooX#o#o.X. .o#o#*oooooo#*oo    836=-*##**",
"X#####**4;:  Xo###o.o#####*X. ...     o   .    .. oX.#X..o..#o$.#%7r#XX   #.X. :#oO %>#.oo     ... .X*#####o.o###oX  :-:::=%o**-",
"X#o###***4::#&:#%#ooooo#%=o. . *X    :o   .%:X    .X .o$X . XX .X*+**#.. .. o o%o#*%o #  o:    X* . .o=%#ooooo#%#:&#:::**=-*#%%*",
"X######%=*4:*&*%o#oo#oo#&#. ..oo##%.*oooX    #  *.Xoo.o*#oo  X <o4o%:%oOXX o.... .*<:##X..X*.%##oo.. .#&#oo#oo#o%*&*:4*%%**#***#",
"X#######*-:%#**##oo##o#*#. . .* oX. O*#o ..     ##o:<Xo$#. . . *#r#%*$.   .o   o..#**<**#X#X .Xo *... .#*#o##oo##**#%:*######*##",
"X#####o#%;:##*######%o*oX  X*.#:<:X X**o  o X   #Xooo.#*#..   .. o#Xo. .   X   ####>#*<<..o. X*<:#X*X  Xo*o%######*##**##o#####o",
"X########**#oo###%*%**Xo  .Xoo o *oo##.o  oOo   ..o  #**X ..XXo o.oo.   .   .oX##**%*X*.*#X...# oo**#.  oX**%*%###oo#**########o",
"X#####*#*#########***#X  ..o *oX  *o*.  ..X    X   . O.  #<<**#XX#*%.*# o# .#*Xo#**#%XX .Xo. X .o##.#X.  X#***######o##*#*#####X",
"Xo#oo#*#*#o#o####*#:oo  .  O X:*  % o#*.      .       oXo*<*#:#*****XooX :%##OXX#oo%**oX   . . #**:#o. .  oo:#*####o#o#*#*#oo#oX",
"X##oo*#oXXoXX####%:oo  ...   .-X  . X#.o         o#o%X4:*#::*Xoo@X*Xo%X .o:**o o*##*%* .o.    .*#*<*o....  oo:%####XXoXXo#*oo##X",
"o##o###.*:4#XXoo##=#   X XX        #.Xo.ooo..  $oXoX X**Xo%**o#o.O*# ##oo .>** oooXoo%o.o*X XX#*Xo*$+oX X   #=##ooXX#4:*.###o##o",
"X***#*o *:77#.#*oo*:4  ...oX .Xo###o  X.O.#o   .*..   . ..%#Xo##..#oX.X.oX.oX#oOo%*#o*#X .%     X.#X.o...  4:*oo*#.#77:* o*#***X",
"X#-**#o X..4*XXoo##:4:.   ..  .X......  . X.   X#.   .X   ##X+$X..$#X    .o#XX$X.X%#$X..        X.....   .:4:###oXX*4..X o#**-#X",
"o%***4#.o..#XXo###*=6**...     ..... .           .     . ....... ..XX.  . ...... .X...          ..  . ...**6=*###oXX#..o.#4***%o",
"o-:*;q;..#X  Xoo**=;***4**-#*#*####*=4=*-****:-&=*:*&#=-&**===3-#*#o##-:7=-#=*=-#*#*#=-=*--####*-***#-**4***;=*#ooX  X#..;q;*:-o",
"o*2548y*.X..X#oo*****##*&&&#*###*#**-=---***&*::**&&***&&&***-**&--##:-:::*####-***#&*&*&**&#****##**&&&*##*****oo#X..X.*y8452*o",
"X*&::;ii7::&#%o##***##X**##*oooo######*****##**#*##**oo*####**##o**#*o*******##*#*o*o#######o###*o#####**o*****##o%#&::7ii;::&*X",
"o#%**&40w04****#*ooooo###*#####X.o*####**##*****###*##o#*##%**##o##*#*****#*****o#o*#o######oo*#o##########*###*#****40w04&**%#o",
"o****-**%#o##*#*#o##oo####o###oXXX.#####**#****########**##*#####o#**o**#*****o*#o#########o####o####*########oo*#*##o#%**-****o",
"o#:*#-%#**###*##o*o##X#####oo#o*#**####******#########o**###*#####***#*#####**########o###o#o*##o###**##*****%####*###**#%-#*:#o",
"o*******#*****#*o#o#oooo##oo##****####*#**#*##########o**##*##*###****#*###***####o###o####*oo##o##*####****##X#*#*****#*******o",
"oXooXooXooXXXooXXXXX.oXo#X.X.XXoooXoXXXooooXoXXXXoXXX..Xo.oooXooo.oooooooXooXooooooo..o.XXX.X..XXXXXX.o.oooXX..XXooXXXooXooXooXo"
};
