/* XPM */
static char *_526484871667[] = {
/* columns rows colors chars-per-pixel */
"128 128 57 1 ",
"  c black",
". c #070707",
"X c #0B0B0B",
"o c #170F07",
"O c #0F1700",
"+ c #0B1707",
"@ c #171F07",
"# c #1F170B",
"$ c #131313",
"% c #1B1B1B",
"& c #2F1B0B",
"* c #2B230F",
"= c #372313",
"- c #332B13",
"; c #3F2F17",
": c #3F2B1B",
"> c #232323",
", c #272727",
"< c #2F2F2F",
"1 c #373737",
"2 c #430000",
"3 c #43331B",
"4 c #4B371B",
"5 c #533F1F",
"6 c #473323",
"7 c #4F3B23",
"8 c #4F3B2B",
"9 c #533F2F",
"0 c #5F4323",
"q c #574333",
"w c #5F4B37",
"e c #6B4727",
"r c #774F2B",
"t c #7F532F",
"y c #434343",
"u c gray28",
"i c #4B4B4B",
"p c gray34",
"a c #5B5B5B",
"s c #6F5743",
"d c #7B634F",
"f c #6F6F6F",
"g c #9B3333",
"h c #A33B3B",
"j c #9B5B13",
"k c #AF7B1F",
"l c #875733",
"z c #8F5F37",
"x c #9B633B",
"c c #8F7753",
"v c #8B735B",
"b c #AB6F43",
"n c #BF7B4B",
"m c #CB7F4F",
"M c #EBDB57",
"N c #FFFF8F",
"B c #FFFFD7",
/* pixels */
"XXXXXXX.X.X.X.XXXXXXXoo#ooXXXX.XXXXXXXXooXXXXXXXXXoXXooXooXo..XXX..XXXXXXX.XX.XXX..X..XX.XXXXXXXXX.X.XXoXXX...XX..XX..X.X.XXX.XX",
"######*;*##ooooooooo###***#####ooo##o#-4-*#o#oo#o###o#66%*##o#o##ooXX#**%#oXXo#oooooX##**##oooo####Xoo#6%#oXoooooooXXoo*##ooXoo#",
"#*#oo#::#%#ooooo#oo##o*=#%*o#ooooo####36#**###**#*****36#=#o#oo####ooo**o%#XXoo##oooo#*=o%ooooo####o##:=o%#XXoooooooXX#%o%oXXoo#",
"###o##%oX%oooXo*#####o*oX%#o#o#####o#**#$%####*##o##**%#$%##o#**###oX.*$X%oXXXoooooXoo*$X%ooXoo######*%$X%#o##oooooXXX#$X%#XooX#",
"#o##XX#%%#o##ooo#*####*%%#X*o*o.oo####*%%#o#*##****####%%#ooo#*##*#oXXo%$#XXXooooooooo*%$#Xoooo###oo###%%####o##ooo...o%%#XXooo#",
"*#*#**o*##*######*%#####oo#***%###*#****#o**#*********#*#o##o#**%%%##ooooXoo############oXo###%########*oo*###*%###oo*###Xooo#*#",
"#*%**#*##***%********%*%**%::*###**#*:**%%*******:*%%********::*&**%:*##**#####*##%%*%#**###:*%****#%***###%#**********##*##*%##",
"XXXXXXXXXoXoXXXoXXXooXXXXXoooooXXooXXXooXooXXoXXXoXooooXXXXoooXXXoooooXXX.XXXXXXXXXXXXXXoXoooXoXoXXoXXXX.XXXXXXXXXXXXXXXXXXXoXXX",
":*:*:6:*3--66=6**::::6%%::::::::***3%*=::-66::::::::**:::::::::::66:36==:=:::6::::*****:*&::63:::=::==::::::6:::::-::;**:::6::::",
"#**############****###o#o##oo####oooo##o#**#****#######o######*##*#*######*#########o#ooo#*###**#*##############################",
"*#*##o###**###***ooo###o####oo####oooooo**o##***###o##o#######*###****#####**############**###*###*#****#####o##o*#*##o####*####",
"##*##o##o##o#*#*###*o######ooo###ooooo#ooo*.*#***o#####ooooo######***######*############*######*****#*##########o#***#######**##",
"*#**###oo**###**#####oooo#*ooXoooooo##o#ooXoX##***####oo*####*o##*############oo#######**########*#############*******o*#**#*###",
"****##*##**#%%****##oooo#########ooo###o**o*#o##*#*oo#*########o#############ooo#######***#*####**##*##*######***********:**#%*#",
"***#*####*********#####o#####o####X#.o#o***o###**#*oo#*###*#####*###########**#########***###*#***############********#******###",
"##****************%####oo##ooo###*o###.#oo*#oo#*##*oo**###o##**######*######**########****##**#**###*#########***#*#********#*##",
"        ..      X***##o##oo#o####ooo#*o#ooo##ooo###o#oo###oo*#*#####***####*#####*####o******##*#*###*#######**$          .     ",
".    ... ....    .***##ooooo#oo#ooo#o**##oooo######o#o####o###*#######**####**###o##ooo**#**#####*##**######**o        ..... .  ",
"  XX.XXX.X#X..X.  .***###o#ooooooo##oo*#****ooo##o#*o#o#o###*#*****######o##***###oo#o#########o##*########**$   . . .XXXX...X .",
".X.##%**#X*#X##.X  .***###o##ooooo##o#o#*###*###o##*#####o##o*##***#ooo####**###ooooo#######*#####**#####***$  .o.XX..XX.X.Xo$. ",
" .X*o#****o%#oX.XX. .***###oo#ooooo##oo#****##*oo####*oo#########o##*##**oo#######o#oooo#####oo#########***o  .$#o#X. .OX.#**o. ",
"Xy:#**:oo:**#.:$* .. .***####oooo#o#####*#*####****###o#o##oo###oo######o##########o######%#############**$ ..$*.ooX.. Xoo*<*$o ",
"%9O6>#:*o:*#o:#OXX .  .***##ooo##o#o##o#o*o#o#***o######################*###*o##o######################**$  .o*#.o#oXX:****XoX#X",
"<:**:*6:<<*O*+#  ooXX  .***##oo#o###o###o#o##6&*&=*:***===*##**=*****--*:*=*=-***##oo#o##*########o##%**$   ..o***X*###%:%**<*>:",
"6<:*<6%<::i:X.*.. #X$X...#*###ooo#oo*###o###*#.......  . ..    ....... .......XXXXo#oooo#*##########%**$  .XX.o*:X .#*o*<<:#:>6*",
":::*>*6y<*<#oooXo**Xo$$. .**####oo#o######**#..o##ooXXXXXXXXXoXooXXXXXXooooooo###X.o#Xo########oo###**o    .. *:%X***:<##O#<:**#",
"$***66>6*#*#*X#oX..o#oX.  .**#%#######o####*..X##ooXoXXXXXoooXXoXXXXXX#oXXXXX.##ooX.#Xo###########***$       X*%:<*##%***o$****>",
"***>6>::%:*<:###oO.**..    .***##*o####oo##*..o##ooXooXX.XX...ooX......X..X..Xo#oXX.#oo###########**$  .  X X*:y:#<>:*o:<X X***#",
":6<:6<:**:%:##*X@oO%ooX.    .****#*o#*###o#=.oX#o                              XoXX *############**$ ..XoXo*:y<:*<*##XX*#OX#**OO",
">996::%**6>*##*ooo#OX#oXX.X...***%*##**oo#**.oo#X*66::677979766esswsss77w99wse*XooX *#########****$  .Xo  :<*<:*>*#>oXo#%*%#::*#",
":6iyy6:<::%:*>6Oo%*.X#*oX#$$ ..**%#oo**####*.o#.Xo%###***#*******:*:**::****66oXXoX.####o#o###***$ . oX .##XO*o .X%#>:#$*. .#%**",
"$*i9wy:66<#%:#>Xo#X OO$#oX X....**%*##o#o##=.ooo..#####*##***%%#*****:*:##*%w6o..XX *##*####o##*$. .X###o*o*oo#oO*%o*6<oo$#**#o#",
"o:.Xi6:<>*$**#*##*##o#*:X X*#.. #:%####*###=.XXX.X*#oXXXooXXXXXXooXoooXXooo##*o.XXX.*#####**####..$##oo#+#:::o**:%*.*#*>*XX+*o#.",
"iio wy::**X#**%#o##*#O*<#X>%#X. o::##**##***.XX..o*X####oo*###o######*##***#*#o..#o.=######**%** .o>oo####%#XO.X:#.X*o*: XXo*o#%",
"6w*X :<>*:*X###$X#*****:o.=*oo  #6=%#####**:X#X..o#.##**#####oo###*#***=****=oXXXXo.=#####o#*%** X*%*6<>*##   XO*#$$6yy$ o:o*<**",
"<6y* X9*:<X##### %##o**:>*:*$o..o6=%#####o#*.oXX.X%#*=::-=*-Xo**-*oX*5686::**ooXXXX.=###ooo##%:*  $XX,**.#*<**##o>X#i*o Xo$o>:<6",
":y9:* $:<$. O*# O#oo>*<:<:%X.X..#6*######o#3##Xo.X%#*.......Xo....oo.......:*XXXoXX *####o#***** .X  o%%o+*6*6#X XX  :*  ##*:<6>",
"y->yyX*y:$ XXXo##..oo**%*<*%o.. #:*#####o#*-.oXo..##-X. o.oo##o%OO###O$X. X6*XXXXoX.*#####**#%** XX.*<:o##*%o%#%6<X  <yo ..X:<<6",
"66:*6**<%%%. .*$  .X*,:o<6:*o.X.#6=######**:.ooXXX**:o..-*<6-*yyyy*-y<**..#-*Xo.oXo.:#*####**#** X##=*%$*%**6OX*yy%*####o o #*<:",
"6<:y*#ooX#*X. .   X*<**%:%%#$oX.o:*##oo#*##=.ooXXo#o=#***#==;=4==46;==#*%%#-*XoX.Xo.=#*######*:*..oX%: .*o**:oo*.*6%#X.#>o#o#:**",
"y:**#*X#oX$o.XX   .X*#o#%*=*o.X.#:=#ooo#o##-.X#o.o##:#oo*#rh99mnnn69xr#*oX*;:#X.oXX.*#*#o####*:*..XX*%o oX*6<*O:*.%*##*## oX*#:<",
":%<*<:###oOooo.X o..*%**#,*:,o%.o::**#*##o#=.XoXXo##=XX.=&gMppMMMM6wMg&-..X9*#X.oXX.=##o#####*** XX#:*##%###:*X.:o*$O#%X..###X:-",
"*::%:##*X@oX#o%oXoX:>*#X##:#o#X.o:=%********.oo.XXoo6oXX>=xMdsNNNNqsNx=#XXo9%oX.ooo =###*##*#%**.*X$::>#%%%#%**XXXoX####X##Xoo,#",
"616>*##*oooo%#. .#*<*:#.o*yo#XXXo6=****#%#**.#o...#o4*::*=xMddBBBBpvNk=o=:*0&XoX.Xo.=#%*#####%**X$X.o>##oo:***%#O#*%*%**:**o##*<",
"%*<%:*>6Oo%XX#%****#.  X.#-<#.X.o:=#***##%#-.oo...#*3###*=xMssBBBBpfNk=X##*9&oXXooo.*##**##*#%**X$oX#6>#.X<6<Xo#o%%X*o**:oo.X*o:",
"6+o*%:#>X##X:<##%o*.    .o :X#X o:****##*##=.XXo..#*9XXX*=xMwwNNNNqsNx=o..o6:oX.ooo.*##**##*****.###,*<#.##,6***><# oX*6<*X-%#:y",
"#ooo#*****%#ooX  O* .. Xo .o XX o:*######%#= XXo.X*#;oXX<&gM09MMMM66Mg&oXXo6*XXXooX.*#o####**%**.Xo,66o.X.X#**:# oo#%###:*X#*<*<",
"#*X#oo*<<%##XX$X.o#..  o o#.  . o:=######*#*.oXo.o##3*:::#rh6:jbnn=6xr#*:<*:*#oXo#o.-***#*###***.X#*o*# .o*::*##O*%#%%%#%*##%9**",
"<:###oO6*****#%*##*   X##o*    .o:=##o####*-.ooX.X##7###6#==%#44==#:==#####:*oXXXoo.-**######**#.##oX*##>o#<:*%**%##oo:***$#.<:*",
":##*X@#*:%*%**:o.*#  X*o##o<*...#::###o#o#*-.Xoo.X#o;#..6:9w##sssso#ww:#..#:#X.Xo#o.-*#######%*# $#o*#o$ oO#%*###o##.X<6<X.oX*:%",
"*o#*oo#*XX*o**:oo%X o#:#XX #.   #::####o###=..X..X#o*o .#oOo#X*OOO#o#OoX..X=#X.Xooo.**##***##**#.+*X*<:.O6*o:::**%##o##>=..o<:*$",
"oo%6O#### oX*6<*o%* .oOX#X.* XX.o6=##oo**##*.XXX.X*X-XXX..XXoX.XXX#o.......=*oXXXoo.-**#***#****XX%#:*#X$:<i<X .#XX%o$..o  .:#oo",
"#oX%X##*##%###:*$o**#OoOXooX .X #6:*###o#o#*.XXX.X*o**-##596o.#&&&*#:66::***#XX.o#o.-**###**##**.$o,i*# <w<;*oO#  %*X .#% .o*#*X",
"##oo%y6*Xo**y<%*##*O*##o .o  XX o6:*#o#####=.oX ..*X#**%****ooooooo*#%###*##oXXXo#o.-###*###**** X*::>#X<::<*6yi**6%#o=**oX**<:#",
"*X@##-X#*%#*66**#o*+oOX   o X#X.$::##*#####=X....X#X#**#Xoo#Xoooooo##oo#####oXX.ooo ***####*#%**.X#%##.X*%::>6y6:y,:i:<:#o#*%:##",
"*oo#o*#*#*y*<:<%o+*##*O#X#* #o.Xo:**#######=.##XXo*oooo#oX.XXXoXXXoXooooXoooo#XXoXo.-*#######***.X$#*. o<:>-y::6<y*%%:*o<%*:>*##",
"6Oo#*>#Xo%***::o o#o**##. ##..XXo:=##**#*##-.o*#X#:**=*6-*#=**##***##*****%:*:o.oXo.*#o####*#%*#  *X.  #<6y6**:y6**:*<:<i6**%:*>",
">##***##o*##%::*  ##***oO Oo#*+ $*=**###*##6.o*#o#:*****:**6**##::********-:9:#..Xo -**o####**** ..#oXXOo*:*X>66<%iii#%::X#:#%:#",
"<*,:<:%X*:#***<<#.X###o*# O**$..o:=########*.X##.o********:*##***:::******6:::o.oXX.-#######*%**.$#%:y#*<<wiy:<O*:6<:*=6*#***6yy",
"y6<**%:#<<6****:<6yy#.###.#*X   o:*%#######*.##oX.              .              .oXX.:########**# X.#=% #:16ywy:#O><y*<:<<#Xo>6i*",
"i,o*y:*o**<::<6y6y*<9%##  ***<#.o:*%#######*.X##oX.....X.........XoX..XXXXXXoXXXooo **########*#.Xo#># ,<::>6<:#o**>6:66-##:y6<#",
"<*o66$X#<:*<%*#:*:o#>>ooO*6,:%#Xo:=%#*##*##*.o###oX.XXoXXXXXooXoooooo#####oo#o####oX:*######%*** XX##< :#yi9>:**6yy<*,:<:%XX*:%#",
"*%<i<*#6<<****#*O%*<*< .#:###oXXo:=****####*.o####oo######*#*##*##o##*###oo#######o.-#######**:* $#.o# %*:6iy>o>6i*y6<**%:#$#-<<",
"y<*i9*.<:*:*>6y:**<<:6. XX:6<<%Xo:=%#o**#*#*X#*###o###o###**#####*****#####o##*###o.*#######**:*.X$o*$o#<>:*66:y6<#i,o*y:*o**<:*",
"y6#*:%6:<*%*66*#:%*#*%. **< #.  #6:#######**X##**####o#########o##**######oo######X.**#######*-*.#o##o<#:o 61#X*:%#<*o66$X#<:*<*",
"%*%6>6<:#<8#%6>**O#%y*#.#X :oo..#6:#ooo##*#:.o#*###*########*#####*########o######X.****#####--*..#*$*< #<##*o.o-<<*%<i<*#6<<**<",
"6<**%#**X#<:<*::#*#*:>#XX#:oo$X.#6=%***##**3.o###############oo#####o#o#**########o.-*########**.X#*:o  X#<:*::>6>*y<*i9*.<:*:*y",
"ay*y:*6y*X*o%6>**<*%%#**##<*,*X.#6:****#*#*:Xo#*##########%#########o#####*#*#####o.-*#######**#.X.XX#y  *6y#.**:<*y6#*:%6:<*%:i",
"yo#<#$6%::y:<***<**%#*%<*o*##X. #6:=*######-.#**#*#***#####################*#oo###XX*######o##*#.X*,##:  .6*oy*XX*<%*%6>6<:#<8*6",
"#%:6,*y*#%::>*<*#O<<6y<*:#*<##. #96=&######*.o###########*########o##oo#######*#o#o.*#######*%**.+#,**# . #*ywy9<<y6<**%#**X#<:y",
":>:*=oo**##>**#::<yi6yy:%#:>#*# #6:*##*####*.o###########*#############o####***####.**####*#*%** .##<.%##::6ay*:69iay*y:*6y*X*#%",
".=<%o*oX**%6%##6y::y6i=>#o%***X o:*##*****o*.o##ooo#################oo######***#### *o**###*****.XX#6#*.%6<69y*%<y6yo#<#$6%::y:#",
"*<6oOX**::y#***>66<<**%<##:6,*#.o:*#******X*.o##oooXo#############*###############o *#*####*%%**.X..#*#X*y96<6:y9yy#%:6,*y*#%::*",
"<:%**#6>X*6*><oo6y9**<y<o##:*%o.o**#**#*#### o##o##oo###############o##o##########o.*#*##o##***#...X*%* ##66::6:<:%:>:*=oo**##>$",
",<6y*X:* *::*6>::<<*:yi6oXX*%*X.$**###o##***.X#Xo###ooo############ooo########**##o.**####o#****.X o*#o $ y:%:%##%#.=<%o*oX**%6o",
"**y<#O#<O*<6<*6y<:*X#:6$X .*##X.$**#X##*##%* Xoo**############**###*######o#######X **#######%**.+Xo#*##*+*:#9<66:**<6oOX**::y*y",
"oo##.  ..o*:*::<6:<%:<#.o##*%##Xo::%##*###%* ooo#####*##o#o###**##*###*###***#####X ##**#####***.$o%*:#%# X**>o#<:$<:%**#6>X*6*o",
"o#**X##. o:>*,:-<66y%X#$ooO##%#.o:*#######$o Xooo#o###**####o###oo#####*#ooo######X *#*#*#*##%**  .o*>:#% o:66***<o,<:<*X:* *::#",
"o<6%#*o X:*:*:<::yi#oO.o#***%:%.o6=*#*######.X##ooo#######**#####o########ooo##oo#o *o###*#oo%** .oo%:6o#.*y:O.#6y:6%*#+:*<O*<:#",
"#:<*#:X***#>**6:::*>:##o##*:**#.o:=%#*####**..#############**###o###o#####o#o###**o ########*#** X.X#*# X$:y9yO#<*#:*#*>:#%X#**>",
"1<*<66y%####9<**<6%:*##.Oo*%#%X.o:=**######*.o############o#*#**#########*#o#ooooo#.=##*##***%** ..X**# *6<69::#<##6*#<::**#o-,:",
"*y6<<y#oOX##*-##***<O#**#*:*##..o:=########*..o#########ooo###*###oo#####*####o#ooX =#####***%**. .o#*. #y:u:.>#:**>:*y*>:<:#O6i",
"#i,o*<>:###*.Xo*****Oo*#O**%#oX.o6=##*oo##*:.o########o##o#***####ooo#######o######X=####*#*#%**  .#%* .%<::y6**%*:6:::%*$.#X##<",
"#<*o66#*##o***:*::%o#-#%**#*#%X.o:=###ooo#*8o#*######oo###**###*#oooooo#######o#o#X.=#%######***. .X:o.X$6y,6y<:*y6<6<:#  #*##*%",
"<*%<i<*O#**#<6*#:#O#**#**6::$oX.o6=*#ooo##*:.Xo############**oo#*o##Xoo#####oooooX..*#*%*%*##*** .Xo##O**%::6<**<:#:<**$X*#OX#:<",
"*y<*i9*Xo*#*6**%*#%#*:<* X<*. . #::#o######*.XX##*############*##*###ooo#ooo##ooo.. %#%#&*&##%**. .X#o=X%*<:o*>::6>::#*XX*X*oO#>",
"*y6#*:%:-#%=>**:**#%:**% Xo   . o::#######**..Xo#oXXo#%#o####**#####o#oXXooXXooXo.. %%#***=*#%*#   .oo. %>6*X:**:i6#**:oo:**#.:<",
"<%*%6>6:*#*o:,:*o.**<*:<**X   . o::########*X .Xooooo##XXXoooXoooXoXXX.X..X.XXooo...*%#***#*****.X.oo#o.=<61::*X<9O6>#:*o:*#o:#*",
"y6<**%#*:<*#*::#.o%#**y*##o    .o:*##*##*oo##oXXXXXXoooXXXXX.XXX..XXXXXXXX.XXXXooXoo*#*#*####*** .o.o.oo%y9y:#o#<:**:*6:<<*O*+#<",
"iay*y:*:**%**<:**.#<6<o*#*#   ..o:#oo####oo#***=*::**:********%%**%**:&#%**=6:66:&**######*#*##*.   ***#*X*o%##*6<:*<6%<::i:X.69",
"6yo#<##<*:<%#**#X.%:<i#*@i<# oX.o6*oooo##o##*****&:#########**######o*#o##%#*66&*#o###%##*&*&##*   *<##  #,:<oo=>::*>*6y<*<#oo<y",
"y#%::>#**y*o<6**>:%,9y#%.o*#. X.o:*o#ooo###*:*::::6###oooo####**#o#*#o##**=:666*##o*#*#**#&*=*#*. o%oo*%%#*6<**%****66>6*#*#*<9y",
"%:>*o#<6<o*#::*:*#<y*:oo.oXoo.X.o:**o##*..      O       **#**#*oo###**##XX      O     ..*##*****   o*y#y:%*<66*###*>6>::%:*<:*,:",
"*#*X.%:<i#%**<w,**<:*<ooXX*<:XX $6=*##*#   .X#*&&#X   . =&%####**##o##o% . .X#&==*X   X **###%** .XX#*O=%6<<<*#**6<:6<:**:%:>#*:",
"***>:%,9yo:y*9%ooO*%%*%<:#%:<<%.$*=&#X#*..   .oo2.    X.***##o***.XXo###..  ..##2X.   XX***##*** ..o*X**%y6::%#:>%66::%**6%<*o66",
"**:*#<y*:#<y*yo# <6%###X<,:y$##.o**-o###.X #*0tht0-X  X.###oo*#*ooo*o##%.X #*0tjte;X  XX###o#*** . **X*%:<<<6%:****:#O#o-<<*%<i<",
"*#,**<:*<#:%:*#%***,:<*X#*y,X.X *:*%*o##.o  ..#&&o.   o.#**ooo**oooooo##.X  ..#&&o.   oX###o#***  .#.**<y<6:y*#%*:X*#o**<:*y<*i9",
"%6*oO*%%*>oX*<6<o *:::.o *%X#+.o3-***o#:.o o&0tht0;X  X.#**oo#*76*#oXXo#.X o&0tht0;X  XX*##o#****.o.X$#%##<<**X*##:%:#<:*<*y6#*:",
"6<* <6%##o.X***6:#$*%*##*#:%oX#6;***oo*# o  ..#&2o.   X.##oXo#:s6*#Xoo#o X  ..#&2o.   XX**o*#:***:..oXoo$#*:<*XX>o#*%*<<**<%*%6>",
"#*****,:<#%<$::6oXo=>,::<%X .#66-*##oXo# X #*0ttl0-X  X.##XXX&:###%Xo### X #*0ttl0-X  XX**o#*****=- Xo#.#,*<%**.*o#Xo%**:*y6<**%",
"*61o *:::#<**<<y:<6<:%*.:<..o7:****##o## X ...o##o.   o.%X.oX%%$$X%oo#*# X ...o##o.   oX*#******#::*XXX#$ #w*<*.o*. **>*%:iay*y:",
"$6::#$*%*%y>:<iyy<yy6<*. ..#86:*o###oo##.X #*0ttg0;X  o.##*Xo#%$X%$##*6#.X #*0ttg0;X  oo##*#**#*#*::*.. XXoo***.X*X#Ooo<8*6yo#<#",
"*y6oXo=>,*#y<::y6#y#*>$*%X#96&*######oo*.X  .Xoo#XX   X.%#oo###$%$oo#o:*.X  .Xoo#XX   XX%#***#*#***-=* XX##*><**#*<#O o#<:y#%:6,",
"#:%*::%o9y6<6<<y<X:%<*#$X#4:*###*o###o##.X #*0ttce3X  X ##o##oooXXXoo#%*.. #*0ttce3X  X.#o####**#****=-X#%o#**#***o  *#X*#%:>:*=",
">6#o#<-*#*yyyyyi6%%*#$. #9:*##*##**#####.X  .X&#&X.   X.#oo#ooo..oo#X*:*..  .X&#&X.   XX##*####oo###%*::.*<:###**%.. X#X%*#.=<%#",
"*<%o*:<<%:%*#Xii#:%>*+.#86*#######o#####.X o*7tztt3o  XX###X#ooo#Xo#o*:*.X o*4etee;o  XX*#**#*####oo##::*X*%#:<=:<<6*X.o o#*<:*,",
"*#*>*:y%6y>#,*:6<:$*$X#q::#oo#o###*oo##*.o  ..X.2.    XX##****oXoo###*:*.X    ..o.    XX##****o###o*oo%:**+o*<*%*:*XX.  *#X##*%:",
"*#%:%%*6yi<6<*%<<%#$Xo98**##ooo**o*###*-.o oo*444&#. .oX#&%#**%**===-::*.X XX*=3=&X   oX###o#*o*o#o####*&:*$$**>*##.  . ##%**%*<",
"#. >##*<*:yy<*<*#.$$#86*#*######o*####*#*&#-=6-=ooXo##**###*::*;*=*:*&&;:*####o#X..o#*:*#*#*:*###**###%%#***X#%#*%oo#o#Xo#$*<6yy",
"9%.%#*#o.#y:,<<$X X#6:*####oo#o#o######**#***6wew%%*#%*#*o##**#:--&&**=-*&**;400*#**%****#**#####**###%####:*.X##oXOX##. X***y*<",
"><:$#o#$$#*XX#X  .#6:*%#%*ooo###*#######*****:67::###o#o#o####%*****#***###**-36;*6##*#*##**##*#oo*o.X#*###***.$X#oX.X#.  o$#*o#",
"*y<#$X$#$X$$$$.X.o6:*#**#*ooooooooo#####***#**6:::*##o#######******=*:*#####**666-###########*##*oo###*####=***.X+..XX#X .Xo##*<",
"**$...... ......=:6*%*##***o##o*o######o**##%*::*####oooo#o###*#X.*.*#**######-::**###o##o#####o#o##o###*##*%*==#oXXXo$$XX$ooO#%",
"*666669966:6::6983-*#####%#*##o#####ooo***#o#***#%#*#oo#o#####*###**#***#o####:**-*#####**###o#o#o####**##%###*=6687386w69686666",
"=*:::*:6::%*::**-**##o###*#######*##ooooo##o##**####*o##o#####**######o##o###o*::&*#o###*o#####o#######*##*##o##&***:*=6:6:**:*:",
"##########o#%#*###*###**##**####*####o#ooo##o#####o#*o##oooo####**#o#*#o#####**::###o*#*###o#####*#oo##*##%#########**#%%**###*#",
"####oo##oooo#o#o*#*****##***#####*#o#o#o#o####o#o******##oo###=#:*##**########*##***=*#***o*######oo###**#%#####ooo#o*#%#**#o###",
"#####o#:*##o#####**#*#**#***####*####o*#o#o#oooo#######*###o#o*##*****o##########***##*###o####*##o#oo#*o####ooo**oooo*%o**#***#",
"o##o#o###%###oo#**##**#######o**oo#**o*####o##o#######*###oooo#**#*o###########*******##**%########o#*###oo####oooo######*#*#*##",
"*:***#*:=:=**&**=*-&:-*=*&-=:#**--*-*::-=*****=******=*:::=##**-:-#=*:*%&&::=&*::-*-:***-=-:-*&&&**&#&===**==***=*******=*&-*-==",
" .........XXXX.........X..........XX.X..oX.XXXXXX.X..X.......    ..........X............XXX ..............X....XXXX.....   .....",
"*737466767wewe977977799sw76776704677736767wewe977977799sw76776707677737470ww9w0wwws39970=3;776707677737470ww9w0wwws39970=;-77770",
"#*******#*******##******:*******####****#*******##******:*******####*****#**#**#####************####*****#**#**#####***********#",
"*##***:*######**####*##**#**##**#*#*****######**####*##**#**##**#*#*****##*#o#o####*%%*#*#%*%%**%*******##*#o#o####*#########***",
"**#***##**########o##******#######o#o##***########o##******#######o#o##*#**ooo#oooo####o##**%###*%####%*%**ooo#oooo#o##o#o#**ooo",
"##*#*#######o#o#ooo#*##########o##*oo##*####o#o#ooo#*##########o##*oo##*##oo#o#oo##o##ooooo####o##*oo##*##oo#o#oo##oooXoooooo###",
"*&**#****######o###*%#####*###oo*******########o###*%#####*###oo*******#o##oooooo##*####oo####oo*******#o##oooooo#####ooooooo#o#",
"X.oXoo.X.X.X...o..ooX..X..X......XXXXXo...XX...o..ooX..X..X......XXXXXo...X.......X.X..X.........XXXXXo...X.......X........... ."
};
