/* XPM */
static char *_526575169026[] = {
/* columns rows colors chars-per-pixel */
"128 128 63 1 ",
"  c black",
". c #070707",
"X c #0B0B0B",
"o c #170F07",
"O c #1F170B",
"+ c #131313",
"@ c #1B1B1B",
"# c #2F1B0B",
"$ c #17330F",
"% c #2B230F",
"& c #372313",
"* c #332B13",
"= c #3F2F17",
"- c #3F2B1B",
"; c #2F371F",
": c #232323",
"> c #272727",
", c #2F2F2F",
"< c #373F27",
"1 c #373737",
"2 c gray23",
"3 c #43331B",
"4 c #4B371B",
"5 c #533F1F",
"6 c #473323",
"7 c #4F3B23",
"8 c #4F3B2B",
"9 c #533F2F",
"0 c #1F4317",
"q c #3F472B",
"w c #5F4323",
"e c #474F33",
"r c #5F4B37",
"t c #6B4727",
"y c #774F2B",
"u c #7F532F",
"i c #434343",
"p c gray28",
"a c #4B4B4B",
"s c gray31",
"d c gray34",
"f c #5B5B5B",
"g c #6F5743",
"h c gray39",
"j c gray42",
"k c #6F6F6F",
"l c #777777",
"z c gray50",
"x c #875733",
"c c #8F5F37",
"v c #9B633B",
"b c #8F7753",
"n c #9F8363",
"m c #3737FF",
"M c #5353FF",
"N c #7373FF",
"B c #838383",
"V c #939393",
"C c #8F8FFF",
"Z c #ABABFF",
"A c #DFDFDF",
"S c #C7C7FF",
"D c white",
/* pixels */
"OOOOOOOOOoOOOOO%%OOOOOOOOO%%%%OOOOOOoOOOOoooOOOOOOOoOO%OOOO%OOOOOOOO%OO%o%OOO%%%oO%OO%OOO%%OOOOOOOOOOOOOOOOOO%OOOOOOOOOOoOOO%%%%",
"OOOOOOOOOoOoOOOO%O%OOOOOOOOOO%OOOOOOoOoOooO%OOOoOOOooOO%%OOOOOOOOOOo%%OOOO%oOO%ooo%%%%OooO%OOOOOOOOOoOOO%OOOOOOOOOOOOOOOOOOO%%%O",
"OOOOOOOOOooOO%%%%%%OOOOOOO%%%O%OOOOOOOOooOOOOOOoOOO%%oOO%%OO%%OOoooOo%OOO%%O%oooOOOOOOoOO%%OOO%OOOOoOOOO%OOoOOOoOOOOOoOOOOO%%%OO",
"%O%OOOOOOooo%OOOOOOOO%OOOOOO%OOOOOOOOOOOOOOOOOooOOOooOOOO%O%%%%O%%ooOo%Oo%%%OX...oO%%%OooOOOOOOOOOoOOOOO%ooO%%OOooOOoOOoOOOoOOoO",
"%O%OOOOOOOOOOOOOOOOOOOOOOOO%%O%OOOOOOOOOOOX..XXOOOOooOoO%%%OO%%%oooOOOOoO%O%OOO%%oX..oO%OOOOOOOoooOoOOOOOO%%%%OOOO%OOOOOoOoOOOOO",
"O%OOOOo%%O%OOOOOOOoOOOOOOO%%%%OOOO%%%OOOO.oOOXXoOO%oOOoO%%%O%%%OOOOOOOooOOO%%OO%O.oOOX.OOOOOoooooOOOOOOOOOO%OoOOOOOoOOOOOOOOOOOO",
"%%%%OOOOOOO%O%%OOOooOOoooOO%OOOOOO%%%O%OX+-%OO.oOOOOOOoOOO%%OOOOooOoOOOoO%%%O%%O.+-%OOXoOOOOO%%%OOOOoooooOO%OoOO%%%%OOOOOOOOOOOO",
"O%%%%OOOOOOOOOOOOoooooOooOO%%OoOOO%OO%O%.oOoX+.OOOOOoo%O%OOO%%O%ooOOOO%%o%O&--%O.oOoo+.OOOOOOOOOOOOOooOOOO%%O%OOO%oOOoOoOoOoOOOO",
"-66-36&&-&---6----%%%%%-%#--63---&--&&-%O+OOOOo66-*--=%%---6-----%-%-6-%3**66&6%OoooOOX-6-------%%%3@%&--*66--------%%----------",
"O%O%OOOOOO%OOOOOOOOOoOoooO%OOO%%O%OOOOOOO..XoXo6%OOOOOOOOOOOOOOOO%%OOOOOOOOOOOO%OX.XoXo6%OOooOOOOooooOOoO%%O%%%%OOOOOOOoOOOOOO%O",
"OO%%%%OOOOO%%OOOOOOOOOOOO%%OOO%OOO%O%%%%OoO+oO69O%O%OOoOOOO%OOOO%O%OOoOOO%%OOO%%%oo+oO86%OOOooOOOOoooooo%%oOO%%%OOOoOOoOOOOOOO%O",
"OO%%%OOOOOO%OOOOOOOOOOOO%OOOOOO%%%%%O%OOO%%6899&OO%%%O%OOOOO%%OOOO%OOoOOoOOoO%O%O@%6699&OOOoooOOOoooooOooo%.%O%%%oOOOOOoooooOOOO",
"O%OOOOOOOOOOOOooOOOOOOO%%OOOOOOOO%OOOOOOOOO%--#%%%%%%%O%%%%%%OOO*%%%OOOOO%%OO%%%@O@%-%OOoO%ooXooooooOOoOooXoXOO%%%OOOOoo%OOOO%oO",
"OOOOOOOOOOOOOoooOOOOOOO%%%O%OOOO%%OO%OO%OOOOO%%%%%*%%%%%#6%%@@%O%%%%OO%%O*-%##%--%OOooooOOOOOOOOOoooOOOo%%o%OoOO%O%ooO%OOOOOOOOo",
"%OOOOOOOOOOO%%OOOOOOOOO%%%OOO%O%%%OOOOOOOOOOOO%%%%%O%%O%%%%%%OOO%%OOOOOOO@@O@@O%-%@OOOOoOOOOOoOOOOXO.oOo%%%oOOO%%O%ooO%OOO%OOOOO",
"OOOOO%OOOOOO%%OOOOOOOO%%%%OO%%O%%OOO%OOOOOOO@O%%OOOOO%%%%%%%O%OOOo%O%OOOO%OOO@O%-%#O@OOooOOoooOOO%oOOO.Ooo%OooO%OO%oo%%OOOoOO%%O",
"OOOO%%%OOOO%OOOOO%OOOOo%%%%%%OO%O%OOO%OOOOOOO@%OOOOOOO%O%O%%OooXXXOOO.XOOooOOOoOX&&%%OoOOooOoOOOOoooO%oOoooOOoooOOOoOooOOOoo%O%O",
"OOOOOO%%OOOO%%OOOoOOooo%%O%%OOOOO%OO%%OOOO@OO%O%nbutuccbxwxcwrw6*5tt7uu77rb7tctb6.%&%OOoooooOooOoooOo%%OOooooOOOOOOoOoOOOOoOOO%O",
"%%%OOOOOOoOO%%%OOOooOoOOOOOOOOOoOO%OOOOOO@OO%oOut6-%-6666*=966--%=--966666--6ww*7*.O%%OOOoOoooooooOOoo%O%%%%oooOOoO%oOoOoOOO%O%%",
"%%%ooooOOOOO%OOOoooooOoooOOO%OOOOO%%OOOO@@@%o%u7%%OOO%%@%O%O%%O%%%%%-##@O%%####&%%#.%%O%OOoOOoooooOOooooOOOO%oOOooO%OOoOOooOo%OO",
"%%OO%%%OOOOOOOOOOOoOoX...XOOOooOOOOOOOOO-%@O#c9%OOoOOO%%O%%%%OOOO%%%OOOOOOOOOOOOO%%*.%%OOOOooOoooooOOo..XoO%ooooOOoOOOOooo%%O%%%",
"%%%%%%%O%OOo%OOOOOOoo.+OO+oOOOOOOOOOOOOOO%o%c9%OOOOOOOOOOOoOOOOooOOOOOO%O%%oOOOooO%6%X%%%OOOOooooOoOO.+O%+oo%%ooO%O%oXoooo%%%O%O",
"%%%&%OOOOoOO%%%OOOOOX+-%OO.oOOOOOOOOOOOO%o%tu%OOoOOoOOOOOOOooOOOOO%OOOOOO%%%%%oooOO--%.%%%OOoooOOoOoXX-%OO.oO%%%ooOO%OOoOO%@O%%%",
"---&&OOOOOOOOOOOOOOOXoOoX+.OOOOOOOoO@@O%o%t9-OoOoOoXOOOOOOOooOOooO%%%OOOOoOoOOoOOOOO%--.%%OOOOoOoOOO.+OoXX.%Ooo%OoOO%OOOO%OO%%%%",
"%%%%%OOOOOOOOOOOOOOOoX+.XoX&%OOOOOO@@O%X%t9%OOOOOOOXOOOOOOOOoo%OOO%O%ooOOoO%-%o%OOo%OO#-.OOOOOoOoOoooXoXX+X%*oo%OOO%o%%%%%%OOOOO",
"%OO%%%%%OOoOOOOOOOOOO..XoXo6&OOOOO@OO%O#c9%OOoooOO%OOO%%OOOooOOOOOOO%OO%oO%%OOo%OOoOO%%%-.%OoOOOooOoo..XoXO6%OOOOOOOo%%%%%%OOOoO",
"%OOO%%%OOooOOOOOOOOOOOOooO69%OOOOO%O@o%t9%OoOOOOOO%ooOOOO%ooOOO%OOOOoOOOO%%%OOOOO%%OO@#-%%.%%O#@OOOOOoo+oO69%OOoOOOOOoO%%%oO%OOO",
"OOO%%%%OOOoOOOOOOOOOO@&-699-OOOOOOO%o%t3%OoO%O%OOOOoooOOOOOOOOOOOOOOOOO%%OOOO%OOO%%OOO@O%%#X%%%O@%oOO%%-699*OOO%%%OOOoOO%%%O%OO%",
"%OOO%%%OOoooOoOO%OOoOOO%-&@OOOOO@O@XOw7%#OOOOO%%OOoOoOoooOOOoOOOo%OOOoOOoOOOOO%OOo%o.XoOO%%=X%%&%%%oO%O%-&%OO%O%%%%OOOOO%%%O%OO%",
"%OOOO%%%OOooOooOOOO%OOOOOOOOOO%%O%o*ct6%OOOOOOO%OOoOOOoooooooOOOoO%oOOooOoOOOoOO%ooOOOOoO%O6%.%%%@%OO%%oooOOOO%%ooOOOOOO%%@%%%OO",
"%OOOO%%OOOOOOoOOOOOOOOOOoOoOOO%%#o-u9-#OOOOOOOOOOOoooooOooOooOOOo%%OooOo%%OOOOOoOoOoooooOoO*-%X%-#Ooo%%OOoOOOO%%ooOOOOO%%%%%%O%O",
"OOOOO%%OOOOOOooOOOOOOOO%OOOOoOOOXOc9-@OOOOOOOOOOoooooOoooooOOOoooO%ooOOoOOOoOOOoOoOOOoOOoo@O%=-X-&#%OOoOoOOOOO%%%oOOOOOO%%%%%%O%",
"OOOOO%OOOOOOOoOOOOOOOOOOOO%%OOOOO7w-%OOOOoOOOOOOOOOoooOOoOooOooOoOOOO.OoOOo%OOOoOOOOoOoOOO%O%%4%#9&@OOO%OOOOOOOOOOOOOOOOOOOOOOOO",
"%O%%O%OOOOOoOOOOOOOOOOOOOOO%%@@@ot7-OOOooOOOOOOOOOOoooOOOoOoOOoXoOoo.Xo%%OoOOooOO%OooOoOOoOOO-66%96@O%%OOOOOOOOOOOOOoOOOOOOO%OOo",
"o%O&-%%OOOOOOOOOOOOOOOOOOOoO%#-*O76#%%oOOOOOOOOOOOOoOOoOOOoooOOOoOooo.oo%OOOooOOoOooOOoOOoOO%%---g-@OOOOOOO%OOOOOOO%%O%%OOOO%O%%",
"%OO%%@OOOOOoOOOOOOooOOOOoooOO#-#Ow%OOOOOOooooOOOOOOOOOOOoOOOOOOOOo.oOOoOO%oOOOo%OOoOooOOXOOO@%%%#g-#OOOOOOOOOOOOOOO%%%OOOOOOO@OO",
"OOOOO@%OOOOO%OOOOooOOOoOOoO%%-##O7%OOOOOOOooOooOOOOOOOOOOOoOOOOOOOoOoOOoOO%%OOOOOOOoO%OooooOO%&%%r%%OOOOOOO%OOOOO%%%OOOOOOOOOOoO",
"O%%OOOO%OO%%%OOOOOOooooOOO%%@##-O6%OOoOOOOO%%ooOOOOOOOoOoOOOOOOOOOOO%oo%%OO%OOOOOOOOoOOOOooO@OO%%7%%OOOOOOO%OOOoOOOOOOOooOOOOoOO",
"OOOoOOOOOO%%%OOOOoooooOOOOO%%OO#%6-@oooOOOOO%-OOOOOoOOOOoOOOOOOOOOOOOo%OOOOOOooooOoOo%ooOooo%#%%%r-@OOOOOO%OOOOoOOOOOOOO%oOOooO%",
"OO%OOOOOO%O%OOOOOooOOOOOOOOOO%-#Or-@OooOOoO%%%OOOOOOOOO%O%%OOOOOOoOOOO%oOOOOOOoOoooOoOOooXoOO%%*O7%OOooOOOOOOOOOOOooOOOoOOOOoOOO",
"OOOoO%OOOOOOO%OOOOOOoOOOoOOOO--*O76-O%OoOO%%%%%%%OOoOO%OOO%OOOOOOoOO%OO%%oooOOOOoooo%OoOOXOOO**#%7-OoooOOOOOOOOOOOO%oOOOOOOOOOoO",
"%%o%O-%OoOOOOOOOOOooOOooOOOO@%##O76-OOOOOOOOO%OOO%OOOOOOOO%%%%OOooOOOOOOoOOOO%o.XOOOOOOoooooOOO*O76-%O%OOOOOOOOOoOOOOO%%OOOO%%%%",
"%%oO%%%%OOOOOOOOOOOOOOOO%OO%@###O7-#%%%%%Oo%%%O%%OO%%OOOOOOOOOO%OooOoOOO%OOOO.XXXoOOOooOooooO%O%O7-#%%%%OOOOOOooOOOOOOOOOO%%%%%%",
"%O%%%%%OOOOOOOOOOOOOOO%%oOOO@##-O6-#%%%OOO%%%%%%%OOO%OOOOOOOO%%OOOooo%%o%OOOO%%O%ooooOooooXO@O*OOw-%%%%OOOOOO%%OOOOOOO%OOO%O%%%O",
"OO%O%%%%%OOOOOOOOOOOOOXXXXO%@###O7-#OO%%ooO%%%O%%O@OO@@%@@@@OOOOOOOOOOo%%%@%%%%%%%oOooooX.ooOO#OO7-%%O+..ooOOOO%%OOOO%O%%%%%%%%%",
"OO%%%O%OOOOOOOOOOOOOO.o%%+X%%%%%%w6@OOOOO%OO%%%%&##@@%O#-%##@@%OOOOOO%O#####%%--%OOoOoo%%oOoO%%%O6%-O.oOO+XoOOO%%OOOOOO%O%O%%%OO",
"ooOOOOO%OOOOOoOOOOOoX+-%OO.O%@#%O66OooOO%%%OO%%%&%#@OOO-6*%O@O%%oooOOO%%OOOOOO%%#@@oOoOoOOOoOOO%O6%OX+-%OO.oOOO%%OOOOOOOOO%o%OOo",
"OO%OOO%O%OO%o%OOOoOoXoOOoo.O%@%%%=*%OOOOOO%OO%-%%%%OoO%66%%OOO%%XooooOOOOOOOO%%%#OOOOooOO%OoO%OOO6-OX+OoXX.OOOOO%O%OOOOOOOOOOoOO",
"OO%%O%%%%OOOoOOOOOOOoX+XXoX&-##O%*-OoO%OOOOO%-6-XXXXXXX++++XXXXXOXX+XoXXXXXXXXXXO%OOOOOOOO%oO%O%O6-OoX+.XXX&#%%%%%%OOOOOOOOOOOO%",
"OO%%%%OOOoO%@OOOOOOOO..XoXo8-&#OO-%%OOOOOOOO#-66<ppaaassddddffffffffddddsssaappq#7%OOoOOoO%o@#OO%66@O. XoXo6-OOOOO%%%OOOOO%O%OOO",
"OOOoO%OOOOOOOO@@OOOOOOO+oO99&-%OO6%%oOoo%%oO%666$q1122ipddfhffdfffdfhfddsi22e1,<%w%OoOo%%%%%%%#O%76@OoO+oO69@OOOOO%OOOOOOOO%%OOO",
"O%O%-%oOOOOO%%OOOO%OO%%6999-%%%#Ow%OooOooo%.-%66:11i1,iassffhfhffffffddsa2,111;:O6%OooOOOOOO@*##Or-@OO%6999&OOOOOO%OOOOOOO%%%O%O",
"OO%%OOOOOooOO%OOOOOOOOO&-%-%OO%#o7%OOOoOooXoX#%6:22,,ishjkklMMMMkMMMMlkjhd2112,:O*%%oOOOOOOO%%#%%96%OOO%&-%%O%%OOOO%O%OoOOO%OOO%",
"OO%%OOOOOOOOOOOOOOOO%%OO%OOO%&%*O7%OOOOo%%o%OO%%:1,>2dhjzNNNNNNMMMNNMMNNkfs2>1>>or-#OOOOOOOO%%#%O96%OoOOOOOOOOOOOOO%%%OOoOO%%OOO",
"OOOOO%OOOOoOOOOOOO%%OOOOOOO%@#@%O6-OooOo%%%oO#%-:e,1pshNCZCCCCCCCCCCCCCCNjdi1:,:O*%%OOO%%OOO%-%&O9-@%%OOOOOO%%OOO%%%%OOOOOOO%%OO",
"OOOOOOOOOOOoOOOOO%OOOOOOOOOO@@#%O7%@OOoOoo%OOO%-:e,2palCZZZZZZZZZZZZZZZZNkai2,i:O6%%OoOOOOOO%--%O7%%OOOOOOOO%OOOO%%%OO%%O%%OOOOO",
"O%OOOOOO%OOOOOOOOOOOOooOOOO%@#@OO3%OO%oOoooOOOOO:i,ipsMNCZCCCCCCCCCCCCZCNjpp2,,:O*%OOo%OOOo%O6%%O7-OO%%O%O%%%%%%%OOOOO%%%%OOOO%O",
"%OO%O%OOOOoOoOoOOOOOOO%oOOOO%-%%o*%%oOOOOoooO##%:2>2iijMNNNMNNNMMNNNMNNNMhiip>2>O7%%OO%ooooO%%**o*--%OOO%O%%%%%%%OOOOOOoO%OOOOO%",
"O%OOOOOoOOoOOooOOoOOOoOOOOOO%##%o*%O%OOO%%%%OOO#:,>pisdhklllMMMMMMMMMlljhds21>2>O*3O%O%OO%%%%*%#O6-@OOOOO%%%%%%%%OOOO%O%-%oOOOOO",
"%%O%OOOOOoooOoOoO%oOOOOOOOOO@#%OX6%%OOOo%OOO%O%%:<>i2iidsfhhhhjjhhhhhhhffsi2i@1>o63OOo%%%%%O%%%%O6%#OOOOO%%%%%%%%OOOOO%%OOo%OOOO",
"%%OOOOOOooOoOooOOOOO%%OOOOOO@@OOX*%%OoOOO%%%OOOO><:2i2asasassssssssssadspap2i@q:O6%%oO%o%%%%%%%%O7&#OOOOO%%%%%%%%OOoOO%%OOOOO%O%",
"%O@OOOOOOOooOoOOOOOOOOOOOOOO#%*%%*%OoOoo%O%O%-OO:q@2222i22222i2222i1222pi22i2:<$O6%#OOOO%%OO@%%%%7-#O%OO%%O%%%%OOOOoOOOOOOOO%%O%",
"O%OOO%OOOooOOOOOOOOOOOOOOOOO%%6-%w%%ooXOo%oOO--*:<@q,11,1,paaaappaaaai,121,2<:<:O7-OOOOO%%%O%%*%O7-#%%%OOO%%%OOOOOooOOOOO%%%%OO%",
"O%%%%%OOOOOoOO%OOOOOOOOOOOO@%%6=*7%OOoOOoOo%OOO*:q@q<<1,>i11112,i22211i>,1<<<@q:o*-#OOO%%O%%%***O7-#Oo%%O%%%%%%OOOoOOOoOOO%%OOOO",
"OO%%OOOOOOooOOOOOOooOOOOOOOO@%==O7-OooOOoOoO%OO*:<:>>>>$q;,<q,<;<;,q;<qq:>;>>@q:o6%%OO%*OOOOO%-%%r6%OOOOOOOOO%O%%OOOOoOOOOOOOOOo",
"OO%OOOOOOOOoOOOOOOoooO%%OOOOO==%O&%OooOOOo%O%##%$q:>>,>e,1,<<<<qq;<;;,2e,$>>>@q:%*%=*OOO%OOOOO--%r6OoooOO%O%%OO%OOO%OOOOOOOO%OOO",
"OOOOoOoO%%OOOOOOOOoOOOOOOOOOO%%%O*%OoooOOOoO%%%O$q:eiii1,2i11q<<<;<,,12i2iiie@q:or*=%oOO%%ooO%O-%r-#%%%OO%O%%OOOOOOOOOOOOOOOOooO",
"OOOOoOOOOO%O%OOOOOo%OOOOOOOO@%OOO7%OoOOoo%OO%%%%$q>iippi221221<<<<21i2ipis212:1:%73%OoOO%%%%OO%O%r6-%%%O%OOO%OO%OOOOOOOOOO@OOOOO",
"OOOOOOOOOOO%OooOOOOoOOOOOOOo@%#OO7=OO%OOOOOO%%%%:201ppaisi2p1i2<<212ppsappi2p,e:or3%oOOO%OooO%##%r66%OOOOOOO%%%%O%O%%%OOOOOOOOOO",
"OOoOOooOOOOOOO%OoOooOOOOOOOO*#%%o7=@O%%oooOO%%%%,2>i22iiiippiie;<,2papisii22p0i,Ow6%OOOO%%OOO%%%-cw6&OOOOOOOOOOOOOOOOOOOO%OOOOOO",
"OOOOOOOoOOOO%%%OOOOoOOOOOO%O*#*%O7%Oo%%OOoOO%%%%,21pihmMhapsii22112aapahMmhas0i,%r3%OOO%O%ooOO%%%w6%%O%OOOOOOOOOOOOOOOOOO%OOOOOO",
"OOOOooOOOOOO%%%OOO%OOO%%OOO%%*%%Ow-%OOoOoOOO%%%%>22ddMMNMjaiiii1212iiakNNNMdd,i,%r3%oO%%O%ooO%%%%3#%%%%%%%%OOOOOoooOOOOOOOOOOOOO",
"OO%OOOOOOOOOOOOOOO%OOO%OOOO%###%o-%@ooOOOOOO%%%%,p1afMCSCMhi2pi12ip22hNZAZNff2i,O6-#OOOOOOOo@O#%O6%O%%%%%%%OOOOOoooXoOOOOOOOOOOO",
"OOOOoOOoOOOOOOOOOOOOOO%OOoOO%%#%O6-OOooOOooX%%%%,22dhNSDSNMd1,i12i,1dMNADANhfia,O7%%oOOO%OO%%%%%O*%O%%O%OOoOOOOOoOOooOOOOOOOOOOO",
"OOOoooOOOOOOOO%%OOO%OOOOOOoO%%#*o5%OOOOOOooXoO%%,p2sfMCSCMMd1,i2,i,1dMNZAZNff220O7%OOOOO%O%O%%%OO*%OOOoOO%%OOoOXoOOOoooOOOOOOOOO",
"OOO%OOOOOOoOOOOOOOO%%%OOOoOO@##-%6*OOOooOXoo%@%%021shkBNBkhdsp1,,1pidhkBVBkhs1i>O7%%OOO@-OOO%%%OO&%OoOOOOOOOOooo%%OOOOOOOOOOOO%%",
"OO%OOO%OOO%%%OOOOOOOOo+X.XOOO%%#O**OoOOOOooo%#%%,212dfhhhhsa2p2,11i2iddfhhhsa1i>O=%OOOO@@%%O%%%%%=6#OoX..XOOOoooOOOOO%OOoOoOOO%%",
"ooOOOOO%OoooOOOOOOOOo.oO%+oO@###o6%OoooOoooO%%%%>1,12isaai2100>::$00122daii21,1>O6%%OOO@%OO%%%%OO3%OO.oOO+XOOooooOoOOO%%OOOOoOOO",
"OoOOOOOOOOoooOOooOOOX+-%OO.XO###%6&%OO%O%ooO%%%-:,i12iiisap1,2>;>>2,1ii2spii1i,:O6-@ooOOOO%%%O%%%w-%o+-%OO.ooooooooOOOOOOO%%OOOO",
"oOOOoOOOOOoOoOOO%%%O.+OoXX.O-%%#O-#Oo%OO%oO%O%-=@>,,,0,,110,>>::::>$,,000,,,:$>@O6-@ooOOOOO%%-%%%7-@XoOooX.OOOOOoOOOOOOOOOO%%OOO",
"OOOOOOOOO%OoOoooooOOXXXXXoX-6###%7-%OOooo%Xo%%-6o@@@@@:::@@@@ooooo+@@@::::@@@@+o3-O%oOOOO%%%%--%O7-%oXo.o+X%%OOOOOOOOOOOOOoO%O%%",
"OOooOOOOO%OOOOoOoooOO..XoXO96###O7*OoXoX%O%X.oX6wcvycttwxcuttw97%=twwt7b7uwwwttt7%OooO@O%O%%O--#O7-@O..XoXo6%OOOOOOOOOOOoooOOO%O",
"OOoooOOOOOOOoOOOoOoOOOO+oO8r&###O7-%%%%O%OOOO%%#===%335w7*=-6-*%%#%%-6r--6--%%6-%OooooOOOOO%@---Ow-O@Oo+oO69%OOOOOOOOOoOOoO%%%OO",
"OooooooOOOOOOOo%OoOoOO%6699&@-#-O7*%o%%%%%%OO%OO@O%%%%%%%%%%%@%#O@%-O%@&##%OOOOOOooOOo@OOO%O%---%3-%O%%-699&OOOOOOOOOooOOO%%OOO%",
"%oOOXooOOOOOO%O%OOOOOOO#&&@O@-#*o3%OOO%%%%O%%OoOOo%%OOO%%O%O%%OO%%@OOOOOoO%ooXoooooOOOOOOO%%%---%w-@OoO%-&@OOOOOOOOOOOOOOOO%%ooO",
"O%OOOooOOoOO%%OOOOoo%OO%O%%O@@##O4*%O%%%%&%-%OOOoO%oO%OoOOO%%%%O%%OOOOOOOOOOOOOOOoooOOOO%%OOO--%%w6OOOOOOOOOOOOOOOOOOOOOOOOOOO%O",
"OO%%O%OoOOOOO%%O%OOOOO%oOOOOO##%o5-%OOX.%.%O%%OOOOOO%OOOoOoOOOOO%OOOOOOOOOOOOoOOOOXO.oOo%OOO%*%%%76OOOOOO%OOOOOOOOOOoOOOoOOOO%%%",
"OO%%OOOOOOOOO%OOO%O%OOOoooO%%-##o5*%%OOO%%O%%%OoOOOO%oO%OOOOOOO%%OOOOOOOoOOoooOOO%oOOO.Ooo%O%-%%O76OO%OOOOOOOOOOOOooOOooOOOOOOOO",
"OOOO%%%%%OXO%%O%%OO%%OOoO%%%@%#*O6*%%%OOOOOOo%OoOOOoO%%O%OoOOO%oOOOOOOOOOooOoOOOOoooO%oOoo%O@%%OO6%OOoO%%OOO%%OOOOOOOOOO%OO%OOOO",
"OOOO%%%OOOOO%%%%%OOO%O%%o%O&66-#o*-%OO%%OoO%%O%%ooO%%%%OOOo%O%OOOOOOooOOooooOooOoooOo%%OOooo@#%%O6-OOoO%%OO%%OOOOOOOOO%%OOOOOOO%",
"OOOOoO%%oXOO%%OOOOOOO@OO%OO%*&%@o6*%-O-%OO%%%%OOOOOO%OO%%%&%O%%OOOOooOOOOoOooooooooOoO%O%%oOO@O#O*-%OOOO%OooOOOOOOOOOOO%%OO%OOOO",
"OO%OoOOoO%OO%%OOOOOOOOoOOOOO@&*%O*%O%OO%%%%%OOOOOOOOOOO%%%OO%OOOoOOOooO%OOoOOOOOoooXXooo%OOO@@%%o*-*OOOOOOOOOOOOOOOOOOO%%OO%%OOO",
"OO%%OOOO%%OooOOOOOOOOoo%O%%O@@--o*%OO%%O%oOOOOOooOOOo%%%%%%%OoOOOOO%OOOOOOOOOOOOoOOooooO%%O%O#O%O5%&OOOOOOOOOoOOOOOOOO%OOOO%%OOO",
"O%%OOOOOOOOooOOOOOOoooO%OOOoO%--O76%%%%%OOOOOOOO%oOOo%%%%%%%OOoOOO%Oo%OOOOOOOoOXooOOoooOO%.O%%%%Ow-=oXOOOOOOOOOOOOOOOOO%O%OOOOOO",
"%%%%O%%OOOOOOOOOOOoooOOOOOOoO%#@OO#O%%%%OOooOOOoOOO%O%%%O%%OOO%%%OOoOOO%OOoooXooO%OoooO%o%.%%%%=O*-@%O@OOOOOOOOO%OOOOOOOOOOOOOOO",
"%%%%%OOOOOOoOOOOoooOOOoOOOOoO%-@O-#%%%%%oOO%oOOOOOOOO%%%O%%OOOO%OOoOOo%OOOoooXoooOOoO%#%OOoO%%%3%-*%%O%OO%OOOOOOOOOOOOOOOOOOOOOO",
"OOOOOO%%OOOoOOOoooOO%%%%%%o%O6-*.#O%%O%%OOOOOO%%OOO%OOO%%OOOoOO%OOO%OoO%oooooooooOoOOO%%@OoO%@&O45%%o%%%%%%OOOOOoOOO%OOoOooooOoo",
"oOOooXOOOOOOOOOOOO%%%%%%%%oO%%-=6.%3*@%O%OOOOOO%%OOOoO%%%OOOO%O%%%OOoOOOOOOo.oooXXooOOO%%%XOO%o%t3%Oo%%%%%%@%OOOoOOoOOoOOOOOOoOo",
"OOOooXoo%%OOoOOooO%O%%%O%O%%%%%*%7X==O%%%%OOOO%OO%%oo%O%%OO%%%%%O%OOOO@@OoooooOOoO@oOOOOO*Oooo%w5%%OOoO%%%o%-OOOoOOoOOOOOOoOOOOO",
"ooOXooOO%OOO%%%%%%%%%%%OOO%O%%%%*64X-%%#%%@OO%OOOO%ooO%%%%%OO%%OOOOOOO@OOooOooOoO%ooO%OO@@%o.%tw=%OOooOOO%%%%%OoOOXOOOOooo%OOOOO",
"OOOoooOOOOoo%%%%%%O%%OX..XO%%O%%O65=.%-%%%%OO%%%OOOoOOO%%%%O%%OOOo%ooXO%OOoOOooOOO%oO%%OOO%oOu4=%%%OOoX.XoOO%OO%OooooOOOOoOoOooO",
"oOoooOOOOOOO%%%%OO%oO.oOOXXOOOO%O%65=X**%%%OO%%OOOOOOOOOO%%%%%%O%OOOOO%OOOo@OOOOOO%OO%*@@Oo%uw3%oOOOo.oOO+oO%%OOOOOooOOooOoOoooo",
"%O%ooO%%%%OO%%OOOOOOXX-%OOXoOO%O%%*=6-X=%%%@O%%OOOOOOOOOOO%O%%O%OoOOoOOO%OOOOoOOOOooO%%@%o#vw-#O%OOOX+-%OO.OOOO%ooOooo%OOO%OOOOO",
"OO%oO%O%%%OO%%%%%%OoXoOoXXX%O%%%O%%%%65o*=*#O%OOOOOOOOOOO%O%%OOOOoOOOO%%OOOooooOOOO%%@O*o%u9%OOO%oOO.oOoXX.OOOoOOooXoOOOO%Ooooo%",
"ooo%Xo%O%%%%%%%%%%%OoXoXX+X--%OooOOO#%69X%%OOooo%%OOooO%o%o%o%oOOOOO%%O%OO%OoXOoOOOO%O@O%b7%OO%OO%%oXX+XX+X%%o%OoOOXOOO%%O%OOOOO",
"oX%O%X.o.%%%%O%OOo%%O..XoXO6&%OOOOooO%66-X%OOOOoOOOOo%#%OOoO%OOoOOO%OO%%OOOOooOoOOOO%*o#uw%OOOOOOOoOo..Xo.+6%OOOOoooooooo%OOOooX",
"%O%OOOO%%O%OOoOO%%%OOOO+oO696%oOOOo%oo#6%#.OOOOOoOoOoO%%@O%OOOO%%%OOOOO%%oOOooooooOOOO%b76OooOoOOO%OOooX+O69%OOooOooooOOoOOOO%%%",
"%%%%%OO%OOOo%O%OOOOOO%&6699-OOo%oOoOOO@%---.oOOOXXoooOO%%%OOOO%O%OOoOOO%oOOOOooo%%OOoOng%%OOooo%%o%OOO&6999%oooOooooXOOo%oOOOOo%",
"%%%%O%%OooOo%%OOO%OOOO@%-&%%OOOOO%%OOO##%%%%.O-&O%&OOOOOO*OO%OOO%OOO%%OOOOOOOOOOOOOo#cw%@%OOOOOOo%OOOO%%6--%oOooooX.ooOoOoOOOoOO",
"%%%&%-%OoooO%o%%OoOOOOOOOOOOO%OOO%%OOO@O@OO-%.%%-=OOO%%###%%%%%%%%%%%%%##OO@@OO%&%o%t9%OOOOooOoOoOOOOOOO%%%OOoOoo%%oOoOOOOOOO%O%",
"X.%.%O%%OOOOOO%OOOoOoooOOoOOOO%Ooo%o.XO%OOO*-%.-**=OO%%OOO%%O%O%OO%O%%O%@OOO%&**%O%w7%#O@%oooOOO%OOOOOOo%%OOOoOoOoOOOooooOoOOOOO",
"OO%%O%%%OoOOOO%oO%OOOOOO%%OOOoOO%ooOOO%OOOO-%**X*-=#O**%%O%%OOOOooOO%@%@%oO%%*=wO%t7%%*%O%oooooooooOooo%%%OooOOooOO%OooOoooOOO%O",
"OOOOOOoOOoOOOoO%%O%OoOOO%oOOOOOoOoOOoOOO%OO%#%67&OOooO%OOOOOoooo  .....XX....oootww%#%OO%%%oOOo%oOOOoooooOOoooOOOOOO%oOOoOOOOO%%",
"%%OoO%OoOOOOO%%%%OOOo%O%OOOoOOOoOoOOOO%%OO@OOO%-wtuxwutbtcyutww7%7wtttbcttwwwttbuw=%OOOOO@O%OOoOOOOOOoOoooOOooOoOOoO%oOOooooOOOO",
"-%OO%%OOOOOOOO%OO%%%&%O%%%o%OOOoOOOOOOO%OO%OOo%O&*--6-69-93-**%%O&=67*=96=#&66--3%*OOoOOO%OOOOOOO%OoOoOoOoOOOOoOo%%%%%%OOooOOO&O",
"O%%%%%oOOOOOOOOOO%%%OO%OOOoOOOOOO%OooOO%OO@OoOOO@OOO%%%##@*OOOOOO%%OOO%%%%o%@O%O%O%OOo%%OO%%OOOO%OOOOo%OoOoOooooOOOOOOO%OOOoOo%O",
"%O%oOOOOOOOOOOO%%%%%%%OO%%@OOOOOOOooOOO%%oo..XoOoooOo%O#O%%OOOOO%OO%OoOOOoOOOoOo%o+XXoOOO%%%OOOOO%O%%o%OOOOoOOoOOOOOOO%OOOooooO%",
"%%OOOOooOOOOOOO%%%%%%%O%%OOO@@O%OOoOooO%X.o%OX.o%%oooo%@o%%O%%%OOOOOOoO-%OOoOOOOo.o%%+oOO%%%OOOO%OOOO%OOOoo%OOOOOOOOOO%OOOOOOO%%",
"%%OOooOoOOOOOO%%%%O%%OOOOO%%OOOOOOOoO%OOXX-%OO.XoooOOOOOO%O%O%OOoOOoOoOOO@OOOooOo+-%OO.oOOOOOo%%ooOO%%OOOOOoO%OOO%%OOOO%O%O.ooO%",
"7=@--6-&--66---66=*=6***3-373----&%-%--&OoOOOoX&6--%%%----&--3---6--&%-8-6-%&-%%ooOOOOX&*-3-6@*%33%=*663-%--%*-%**----*666-@@-*3",
"%%OOOOOOOO%OOOOOO%%OOOO%OO@OOooooOooo%OOoXX.ooX%%oOooOOO@%%%O%%%%OOoOOOOO@%oOOooXXoXoXX&#OoooOO%Ooooo%%OO%OoOoOo%OOOo%O-%%ooXoOo",
"OO%OOOOOOO%OOOOO%%%OOOO%%%@%OOoOoooOoOOOo. XoXo6%oOOoO%%O%O#%%%%O%OoOoO%OO%oOOoooX.XoXo6%OOOOooOOOOoO%OOOOOOoOOO%ooooO%%%%%oo%%O",
"OO%%OOOO%Oo%%OO%O%%OO%%%%%OOOOOOoooo%OO%%XO+oO99@oOoO%OO%%O%%O%OOOOOoOO--%%%%OOoOOO+oO89@O%OOOo%OOOoOOOOOOOo%o%O%OO%%%%%%%o%O%%o",
"OO%%@OO%OOOO%OOO%%%%%OO%%OOOO%o.XOOOOO%OO%@-699-O%%%oOOOO@OOOOO%oOoooo@%%OOOOOOOO%%6999&OO%OOOOoO%ooOOOOOOoO%oOo%%%%%O%%%%%O%OOo",
"OOOO%OO%%OOOOOOOO%%%%O%%OOOOO.XXXoOOOoOOOOO%--OO%O%OOoOOO%%OOO%%OoOOoO@OO@OO%OOOoOO%-&@OOO%OOOOoOOOOoOOOOOOOOOoO%o%%%%%O%%o%%OoO",
"OOO%OOO%%oOOOOOOOOO%%%%%%OOOO%%O%oOooOOOOOXOOo%oOO%OOO%%OO%oO%O%o%OOOO@OO@OO%OOO%O@%%%%%OO%%OOOoOO%oOoOOOoOOOOOOOO%%OOOOO%O%%%OO",
"O%OO%OO%%oOOOOOOOOOO%O%%O%OOOO%%%%OOooOOooooOoOo%O%%%%%OO%%OOO%%ooO%OO%%%OOOO%O%O.OO%%%%OOOO%OOoOOoo%OOOOoOOOoOOOO%%%OOO%O%%%%OO",
"%%O%%Oo%OOOOOOOOOOO%O%%O%OOO%O%%%OOoOoO-%OOoOOOOO%%O%O%%O%%OOOO%oOoOOo%%OOOOO%%%OooOO%%%oOoOOOOOOooOoOOOo%ooOOOOO%%O%%O%%%%%%%oO"
};
