/* XPM */
static char *_527257729438[] = {
/* columns rows colors chars-per-pixel */
"51 51 40 1 ",
"  c gray66",
". c #AAAAAA",
"X c #ACACAC",
"o c gray68",
"O c #AEAEAE",
"+ c #AFAFAF",
"@ c #B2B2B2",
"# c gray71",
"$ c #B6B6B6",
"% c #B7B7B7",
"& c #B9B9B9",
"* c #BBBBBB",
"= c gray",
"- c #C8C8C8",
"; c #D0D0D0",
": c #D5D5D5",
"> c gainsboro",
", c #DDDDDD",
"< c gray88",
"1 c #E1E1E1",
"2 c #E2E2E2",
"3 c gray89",
"4 c gray90",
"5 c #E6E6E6",
"6 c gray91",
"7 c #E9E9E9",
"8 c #EAEAEA",
"9 c gray92",
"0 c #ECECEC",
"q c gray93",
"w c #EEEEEE",
"e c #EFEFEF",
"r c gray94",
"t c gray95",
"y c #F3F3F3",
"u c #F4F4F4",
"i c gray96",
"p c #F6F6F6",
"a c white",
"s c None",
/* pixels */
"sssssssssssssssssssssssssssssssssssssssssssssssssss",
"sssssssssssssssssssssssssssssssssssssssssssssssssss",
"sssssssssssssssssssssssssssssssssssssssssssssssssss",
"sssssssssssssssssssssssssssssssssssssssssssssssssss",
"sssssssssssssssssssssssssssssssssssssssssssssssssss",
"sssssssssssssssssssssssssssssssssssssssssssssssssss",
"sssssssssssssssssssssssssssssssssssssssssssssssssss",
"sssssssssssssssssssssssssssssssssssssssssssssssssss",
"sssssssssssssssssssssssssssssssssssssssssssssssssss",
"ssssssssssssssssssssssss*3$ssssssssssssssssssssssss",
"ssssssssssssssssssssssssqaqssssssssssssssssssssssss",
"ssssssssssssssssssssssss9a9ssssssssssssssssssssssss",
"ssssssssssssssssssssssssqa9ssssssssssssssssssssssss",
"ssssssssssssssssssssssssraqssssssssssssssssssssssss",
"ssssssssssssssssssssssssra9ssssssssssssssssssssssss",
"ssssssssssssssssssssssssqa9ssssssssssssssssssssssss",
"ssssssssssssssssssssssssraqssssssssssssssssssssssss",
"ssssssssssssssssssssssssraqssssssssssssssssssssssss",
"ssssssssssssssssssssssssqa9ssssssssssssssssssssssss",
"ssssssssssssssssssssssssqa9ssssssssssssssssssssssss",
"ssssssssssssssssssssssssraqssssssssssssssssssssssss",
"ssssssssssssssssssssssss:u;ssssssssssssssssssssssss",
"sssssssssssssssssssssssss.sssssssssssssssssssssssss",
"sssssssssss$$.@$XX*@XsssssssssX@*XX$@.$*sssssssssss",
"sssssssss=qrupuuuuuuu,sssssss,uuruuuuuurq=sssssssss",
"sssssssss3aaaaaaaaaaauXsssssXuaaaaaaaaaaa3sssssssss",
"ssssssssss9359539935q-sssssss-q5399359539ssssssssss",
"sssssssssssssssssssssssssssssssssssssssssssssssssss",
"sssssssssssssssssssssssss@sssssssssssssssssssssssss",
"ssssssssssssssssssssssss:u:ssssssssssssssssssssssss",
"ssssssssssssssssssssssssraqssssssssssssssssssssssss",
"ssssssssssssssssssssssssqaqssssssssssssssssssssssss",
"ssssssssssssssssssssssssqaqssssssssssssssssssssssss",
"ssssssssssssssssssssssssraqssssssssssssssssssssssss",
"ssssssssssssssssssssssssqarssssssssssssssssssssssss",
"ssssssssssssssssssssssssqaqssssssssssssssssssssssss",
"ssssssssssssssssssssssssqaqssssssssssssssssssssssss",
"ssssssssssssssssssssssssqaqssssssssssssssssssssssss",
"ssssssssssssssssssssssssqaqssssssssssssssssssssssss",
"ssssssssssssssssssssssssqa9ssssssssssssssssssssssss",
"ssssssssssssssssssssssss9aqssssssssssssssssssssssss",
"ssssssssssssssssssssssssX3Xssssssssssssssssssssssss",
"sssssssssssssssssssssssssssssssssssssssssssssssssss",
"sssssssssssssssssssssssssssssssssssssssssssssssssss",
"sssssssssssssssssssssssssssssssssssssssssssssssssss",
"sssssssssssssssssssssssssssssssssssssssssssssssssss",
"sssssssssssssssssssssssssssssssssssssssssssssssssss",
"sssssssssssssssssssssssssssssssssssssssssssssssssss",
"sssssssssssssssssssssssssssssssssssssssssssssssssss",
"sssssssssssssssssssssssssssssssssssssssssssssssssss",
"sssssssssssssssssssssssssssssssssssssssssssssssssss"
};
